<?xml version="1.0" encoding="UTF-8" standalone="no"?>
<!-- Created with Inkscape (http://www.inkscape.org/) -->

<svg
   xmlns:dc="http://purl.org/dc/elements/1.1/"
   xmlns:cc="http://creativecommons.org/ns#"
   xmlns:rdf="http://www.w3.org/1999/02/22-rdf-syntax-ns#"
   xmlns:svg="http://www.w3.org/2000/svg"
   xmlns="http://www.w3.org/2000/svg"
   xmlns:xlink="http://www.w3.org/1999/xlink"
   xmlns:sodipodi="http://sodipodi.sourceforge.net/DTD/sodipodi-0.dtd"
   xmlns:inkscape="http://www.inkscape.org/namespaces/inkscape"
   sodipodi:docname="parlamento.svg"
   inkscape:version="0.47 r22583"
   version="1.1"
   id="svg2"
   height="1052.3622047"
   width="744.09448819"
   inkscape:export-filename="/home/rlafuente/code/transparencia/repo/site-datasets/img/parlamento.png"
   inkscape:export-xdpi="15.86"
   inkscape:export-ydpi="15.86">
  <sodipodi:namedview
     id="base"
     pagecolor="#ffffff"
     bordercolor="#666666"
     borderopacity="1.0"
     inkscape:pageopacity="0.0"
     inkscape:pageshadow="2"
     inkscape:zoom="0.56556354"
     inkscape:cx="2114.5352"
     inkscape:cy="1381.8497"
     inkscape:document-units="px"
     inkscape:current-layer="layer1"
     showgrid="false"
     inkscape:snap-bbox="true"
     inkscape:bbox-nodes="true"
     inkscape:bbox-paths="true"
     inkscape:snap-global="false"
     showguides="false"
     inkscape:guide-bbox="true"
     inkscape:window-width="1680"
     inkscape:window-height="977"
     inkscape:window-x="0"
     inkscape:window-y="25"
     inkscape:window-maximized="1">
    <sodipodi:guide
       id="guide3133"
       position="406.42857,723.57143"
       orientation="1,0" />
    <sodipodi:guide
       id="guide3162"
       position="485.71429,505.70593"
       orientation="0,1" />
    <sodipodi:guide
       id="guide3164"
       position="478.75,651.60714"
       orientation="0,1" />
  </sodipodi:namedview>
  <defs
     id="defs4">
    <inkscape:path-effect
       effect="spiro"
       id="path-effect3230"
       is_visible="true" />
    <inkscape:perspective
       sodipodi:type="inkscape:persp3d"
       inkscape:vp_x="0 : 526.18109 : 1"
       inkscape:vp_y="0 : 1000 : 0"
       inkscape:vp_z="744.09448 : 526.18109 : 1"
       inkscape:persp3d-origin="372.04724 : 350.78739 : 1"
       id="perspective3074" />
    <linearGradient
       id="linearGradient4611"
       inkscape:collect="always">
      <stop
         id="stop4613"
         offset="0"
         style="stop-color:#ffffff;stop-opacity:1;" />
      <stop
         id="stop4615"
         offset="1"
         style="stop-color:#ffffff;stop-opacity:0;" />
    </linearGradient>
    <linearGradient
       gradientTransform="translate(379.81736,464.67017)"
       gradientUnits="userSpaceOnUse"
       y2="-1271.308"
       x2="563.89453"
       y1="-705.6225"
       x1="569.8703"
       id="linearGradient4617"
       xlink:href="#linearGradient4611"
       inkscape:collect="always" />
    <linearGradient
       inkscape:collect="always"
       xlink:href="#linearGradient4611"
       id="linearGradient3162"
       gradientUnits="userSpaceOnUse"
       gradientTransform="translate(1833.5119,464.67017)"
       x1="569.8703"
       y1="-705.6225"
       x2="563.89453"
       y2="-1271.308" />
    <linearGradient
       inkscape:collect="always"
       xlink:href="#linearGradient4611"
       id="linearGradient3226"
       gradientUnits="userSpaceOnUse"
       gradientTransform="translate(1636.9706,744.03755)"
       x1="569.8703"
       y1="-705.6225"
       x2="563.89453"
       y2="-1271.308" />
  </defs>
  <metadata
     id="metadata7">
    <rdf:RDF>
      <cc:Work
         rdf:about="">
        <dc:format>image/svg+xml</dc:format>
        <dc:type
           rdf:resource="http://purl.org/dc/dcmitype/StillImage" />
        <dc:title></dc:title>
      </cc:Work>
    </rdf:RDF>
  </metadata>
  <g
     id="layer1"
     inkscape:groupmode="layer"
     inkscape:label="Layer 1">
    <rect
       style="fill:#aa0000;fill-opacity:1;fill-rule:nonzero;stroke:none"
       id="rect3073"
       width="45.714287"
       height="68.571434"
       x="55.167595"
       y="-247.21304" />
    <path
       sodipodi:type="arc"
       style="fill:#aa0000;fill-opacity:1;fill-rule:nonzero;stroke:none"
       id="path3075"
       sodipodi:cx="156.42857"
       sodipodi:cy="458.79074"
       sodipodi:rx="12.857142"
       sodipodi:ry="12.857142"
       d="m 169.28572,458.79074 a 12.857142,12.857142 0 1 1 -25.71429,0 12.857142,12.857142 0 1 1 25.71429,0 z"
       transform="matrix(1.7777778,0,0,1.7777778,-200.07051,-1064.8411)" />
    <g
       id="g3408">
      <path
         style="fill:#ff5555;fill-opacity:1;fill-rule:nonzero;stroke:none"
         d="M 242.84375 263.78125 L 242.84375 395.25 L 262.84375 395.25 L 262.84375 348.78125 L 262.90625 348.78125 C 263.7206 336.89738 273.62815 327.5 285.71875 327.5 C 297.80915 327.5 307.68534 336.89768 308.5 348.78125 L 308.5625 348.78125 L 308.5625 395.25 L 322.84375 395.25 L 322.84375 348.78125 L 322.90625 348.78125 C 323.7206 336.89738 333.62815 327.5 345.71875 327.5 C 357.80915 327.5 367.68534 336.89768 368.5 348.78125 L 368.5625 348.78125 L 368.5625 395.25 L 382.84375 395.25 L 382.84375 348.78125 L 382.90625 348.78125 C 383.7206 336.89738 393.62815 327.5 405.71875 327.5 C 417.80915 327.5 427.68534 336.89768 428.5 348.78125 L 428.5625 348.78125 L 428.5625 395.25 L 442.84375 395.25 L 442.84375 348.78125 L 442.90625 348.78125 C 443.7206 336.89738 453.62815 327.5 465.71875 327.5 C 477.80915 327.5 487.68534 336.89768 488.5 348.78125 L 488.5625 348.78125 L 488.5625 395.25 L 502.84375 395.25 L 502.84375 348.78125 L 502.90625 348.78125 C 503.7206 336.89738 513.62815 327.5 525.71875 327.5 C 537.80915 327.5 547.68534 336.89768 548.5 348.78125 L 548.5625 348.78125 L 548.5625 395.25 L 564.28125 395.25 L 564.28125 263.78125 L 242.84375 263.78125 z M 242.84375 400.75 L 242.84375 546.65625 L 262.84375 546.65625 L 262.84375 478.0625 L 262.9375 478.0625 C 262.88075 477.40561 262.84375 476.7341 262.84375 476.0625 C 262.84375 463.43886 273.09511 453.21875 285.71875 453.21875 C 298.34241 453.21875 308.5625 463.43886 308.5625 476.0625 C 308.5625 476.73396 308.55673 477.40574 308.5 478.0625 L 308.5625 478.0625 L 308.5625 546.65625 L 322.84375 546.65625 L 322.84375 478.0625 L 322.9375 478.0625 C 322.88075 477.40561 322.84375 476.7341 322.84375 476.0625 C 322.84375 463.43886 333.09511 453.21875 345.71875 453.21875 C 358.34241 453.21875 368.5625 463.43886 368.5625 476.0625 C 368.5625 476.73396 368.55673 477.40574 368.5 478.0625 L 368.5625 478.0625 L 368.5625 546.65625 L 382.84375 546.65625 L 382.84375 478.0625 L 382.9375 478.0625 C 382.88075 477.40561 382.84375 476.7341 382.84375 476.0625 C 382.84375 463.43886 393.09511 453.21875 405.71875 453.21875 C 418.34241 453.21875 428.5625 463.43886 428.5625 476.0625 C 428.5625 476.73396 428.55673 477.40574 428.5 478.0625 L 428.5625 478.0625 L 428.5625 546.65625 L 442.84375 546.65625 L 442.84375 478.0625 L 442.9375 478.0625 C 442.88075 477.40561 442.84375 476.7341 442.84375 476.0625 C 442.84375 463.43886 453.09511 453.21875 465.71875 453.21875 C 478.34241 453.21875 488.5625 463.43886 488.5625 476.0625 C 488.5625 476.73396 488.55673 477.40574 488.5 478.0625 L 488.5625 478.0625 L 488.5625 546.65625 L 502.84375 546.65625 L 502.84375 478.0625 L 502.9375 478.0625 C 502.88075 477.40561 502.84375 476.7341 502.84375 476.0625 C 502.84375 463.43886 513.09511 453.21875 525.71875 453.21875 C 538.34241 453.21875 548.5625 463.43886 548.5625 476.0625 C 548.5625 476.73396 548.55673 477.40574 548.5 478.0625 L 548.5625 478.0625 L 548.5625 546.65625 L 564.28125 546.65625 L 564.28125 400.75 L 548.5625 400.75 L 548.5625 400.9375 L 502.84375 400.9375 L 502.84375 400.75 L 488.5625 400.75 L 488.5625 400.9375 L 442.84375 400.9375 L 442.84375 400.75 L 428.5625 400.75 L 428.5625 400.9375 L 382.84375 400.9375 L 382.84375 400.75 L 368.5625 400.75 L 368.5625 400.9375 L 322.84375 400.9375 L 322.84375 400.75 L 308.5625 400.75 L 308.5625 400.9375 L 262.84375 400.9375 L 262.84375 400.75 L 242.84375 400.75 z "
         id="rect3126" />
      <path
         style="fill:#ff5555;fill-opacity:1;fill-rule:nonzero;stroke:none"
         d="m 234.85715,244.50506 337.42859,0 0,10.00001 -337.42859,0 z"
         id="rect3128"
         inkscape:connector-curvature="0"
         sodipodi:nodetypes="ccccc" />
      <path
         style="fill:#ff5555;fill-opacity:1;fill-rule:nonzero;stroke:none"
         d="M 405.5625 170.21875 L 242.84375 232.84375 L 242.84375 235.9375 L 563.5625 235.9375 L 563.5625 232.5 L 405.5625 170.21875 z "
         id="path3131" />
      <path
         style="fill:#ff5555;fill-opacity:1;fill-rule:nonzero;stroke:none"
         d="M 572.28125 281.96875 L 572.28125 546.65625 L 1027.0625 546.65625 L 1027.0625 281.96875 L 572.28125 281.96875 z M 590.34375 347.78125 L 602.9375 347.78125 L 602.9375 400.75 L 590.34375 400.75 L 590.34375 347.78125 z M 630.34375 347.78125 L 642.9375 347.78125 L 642.9375 400.75 L 630.34375 400.75 L 630.34375 347.78125 z M 670.34375 347.78125 L 682.9375 347.78125 L 682.9375 400.75 L 670.34375 400.75 L 670.34375 347.78125 z M 710.34375 347.78125 L 722.9375 347.78125 L 722.9375 400.75 L 710.34375 400.75 L 710.34375 347.78125 z M 750.34375 347.78125 L 762.9375 347.78125 L 762.9375 400.75 L 750.34375 400.75 L 750.34375 347.78125 z M 790.34375 347.78125 L 802.9375 347.78125 L 802.9375 400.75 L 790.34375 400.75 L 790.34375 347.78125 z M 830.34375 347.78125 L 842.9375 347.78125 L 842.9375 400.75 L 830.34375 400.75 L 830.34375 347.78125 z M 870.34375 347.78125 L 882.9375 347.78125 L 882.9375 400.75 L 870.34375 400.75 L 870.34375 347.78125 z M 910.34375 347.78125 L 922.9375 347.78125 L 922.9375 400.75 L 910.34375 400.75 L 910.34375 347.78125 z M 950.34375 347.78125 L 962.9375 347.78125 L 962.9375 400.75 L 950.34375 400.75 L 950.34375 347.78125 z M 990.34375 347.78125 L 1002.9375 347.78125 L 1002.9375 400.75 L 990.34375 400.75 L 990.34375 347.78125 z M 590.34375 446.28125 L 602.9375 446.28125 L 602.9375 464.90625 L 590.34375 464.90625 L 590.34375 446.28125 z M 630.34375 446.28125 L 642.9375 446.28125 L 642.9375 464.90625 L 630.34375 464.90625 L 630.34375 446.28125 z M 670.34375 446.28125 L 682.9375 446.28125 L 682.9375 464.90625 L 670.34375 464.90625 L 670.34375 446.28125 z M 710.34375 446.28125 L 722.9375 446.28125 L 722.9375 464.90625 L 710.34375 464.90625 L 710.34375 446.28125 z M 750.34375 446.28125 L 762.9375 446.28125 L 762.9375 464.90625 L 750.34375 464.90625 L 750.34375 446.28125 z M 790.34375 446.28125 L 802.9375 446.28125 L 802.9375 464.90625 L 790.34375 464.90625 L 790.34375 446.28125 z M 830.34375 446.28125 L 842.9375 446.28125 L 842.9375 464.90625 L 830.34375 464.90625 L 830.34375 446.28125 z M 870.34375 446.28125 L 882.9375 446.28125 L 882.9375 464.90625 L 870.34375 464.90625 L 870.34375 446.28125 z M 910.34375 446.28125 L 922.9375 446.28125 L 922.9375 464.90625 L 910.34375 464.90625 L 910.34375 446.28125 z M 950.34375 446.28125 L 962.9375 446.28125 L 962.9375 464.90625 L 950.34375 464.90625 L 950.34375 446.28125 z M 990.34375 446.28125 L 1002.9375 446.28125 L 1002.9375 464.90625 L 990.34375 464.90625 L 990.34375 446.28125 z M 590.34375 478.59375 L 602.9375 478.59375 L 602.9375 531.5625 L 590.34375 531.5625 L 590.34375 478.59375 z M 630.34375 478.59375 L 642.9375 478.59375 L 642.9375 531.5625 L 630.34375 531.5625 L 630.34375 478.59375 z M 670.34375 478.59375 L 682.9375 478.59375 L 682.9375 531.5625 L 670.34375 531.5625 L 670.34375 478.59375 z M 710.34375 478.59375 L 722.9375 478.59375 L 722.9375 531.5625 L 710.34375 531.5625 L 710.34375 478.59375 z M 750.34375 478.59375 L 762.9375 478.59375 L 762.9375 531.5625 L 750.34375 531.5625 L 750.34375 478.59375 z M 790.34375 478.59375 L 802.9375 478.59375 L 802.9375 531.5625 L 790.34375 531.5625 L 790.34375 478.59375 z M 830.34375 478.59375 L 842.9375 478.59375 L 842.9375 531.5625 L 830.34375 531.5625 L 830.34375 478.59375 z M 870.34375 478.59375 L 882.9375 478.59375 L 882.9375 531.5625 L 870.34375 531.5625 L 870.34375 478.59375 z M 910.34375 478.59375 L 922.9375 478.59375 L 922.9375 531.5625 L 910.34375 531.5625 L 910.34375 478.59375 z M 950.34375 478.59375 L 962.9375 478.59375 L 962.9375 531.5625 L 950.34375 531.5625 L 950.34375 478.59375 z M 990.34375 478.59375 L 1002.9375 478.59375 L 1002.9375 531.5625 L 990.34375 531.5625 L 990.34375 478.59375 z "
         id="rect3159" />
      <path
         sodipodi:nodetypes="ccccc"
         inkscape:connector-curvature="0"
         id="path3166"
         d="m 572.28577,263.9735 460.66723,0 0,10.00001 -460.66723,0 z"
         style="fill:#ff5555;fill-opacity:1;fill-rule:nonzero;stroke:none" />
      <path
         id="path3376"
         d="m 234.953,281.96875 0,264.6875 -454.78125,0 0,-264.6875 454.78125,0 z m -18.0625,65.8125 -12.59375,0 0,52.96875 12.59375,0 0,-52.96875 z m -40,0 -12.59375,0 0,52.96875 12.59375,0 0,-52.96875 z m -40,0 -12.59375,0 0,52.96875 12.59375,0 0,-52.96875 z m -40,0 -12.59375,0 0,52.96875 12.59375,0 0,-52.96875 z m -40,0 -12.59375,0 0,52.96875 12.59375,0 0,-52.96875 z m -40,0 -12.59375,0 0,52.96875 12.59375,0 0,-52.96875 z m -40,0 -12.59375,0 0,52.96875 12.59375,0 0,-52.96875 z m -40,0 -12.59375,0 0,52.96875 12.59375,0 0,-52.96875 z m -40,0 -12.59375,0 0,52.96875 12.59375,0 0,-52.96875 z m -40,0 -12.59375,0 0,52.96875 12.59375,0 0,-52.96875 z m -40,0 -12.59375,0 0,52.96875 12.59375,0 0,-52.96875 z m 400,98.5 -12.59375,0 0,18.625 12.59375,0 0,-18.625 z m -40,0 -12.59375,0 0,18.625 12.59375,0 0,-18.625 z m -40,0 -12.59375,0 0,18.625 12.59375,0 0,-18.625 z m -40,0 -12.59375,0 0,18.625 12.59375,0 0,-18.625 z m -40,0 -12.59375,0 0,18.625 12.59375,0 0,-18.625 z m -40,0 -12.59375,0 0,18.625 12.59375,0 0,-18.625 z m -40,0 -12.59375,0 0,18.625 12.59375,0 0,-18.625 z m -40,0 -12.59375,0 0,18.625 12.59375,0 0,-18.625 z m -40,0 -12.59375,0 0,18.625 12.59375,0 0,-18.625 z m -40,0 -12.59375,0 0,18.625 12.59375,0 0,-18.625 z m -40,0 -12.59375,0 0,18.625 12.59375,0 0,-18.625 z m 400,32.3125 -12.59375,0 0,52.96875 12.59375,0 0,-52.96875 z m -40,0 -12.59375,0 0,52.96875 12.59375,0 0,-52.96875 z m -40,0 -12.59375,0 0,52.96875 12.59375,0 0,-52.96875 z m -40,0 -12.59375,0 0,52.96875 12.59375,0 0,-52.96875 z m -40,0 -12.59375,0 0,52.96875 12.59375,0 0,-52.96875 z m -40,0 -12.59375,0 0,52.96875 12.59375,0 0,-52.96875 z m -40,0 -12.59375,0 0,52.96875 12.59375,0 0,-52.96875 z m -40,0 -12.59375,0 0,52.96875 12.59375,0 0,-52.96875 z m -40,0 -12.59375,0 0,52.96875 12.59375,0 0,-52.96875 z m -40,0 -12.59375,0 0,52.96875 12.59375,0 0,-52.96875 z m -40,0 -12.59375,0 0,52.96875 12.59375,0 0,-52.96875 z"
         style="fill:#ff5555;fill-opacity:1;fill-rule:nonzero;stroke:none"
         inkscape:connector-curvature="0" />
      <path
         style="fill:#ff5555;fill-opacity:1;fill-rule:nonzero;stroke:none"
         d="m 234.94848,263.9735 -460.66723,0 0,10.00001 460.66723,0 z"
         id="path3378"
         inkscape:connector-curvature="0"
         sodipodi:nodetypes="ccccc" />
      <rect
         style="fill:#ff5555;fill-opacity:1;fill-rule:nonzero;stroke:none"
         id="rect3383"
         width="3.0304577"
         height="64.649765"
         x="404.35687"
         y="100.24736" />
      <rect
         style="fill:#ff5555;fill-opacity:1;fill-rule:nonzero;stroke:none"
         id="rect3385"
         width="43.941635"
         height="28.284271"
         x="409.11179"
         y="102.81879" />
    </g>
    <rect
       inkscape:export-ydpi="26.360001"
       inkscape:export-xdpi="26.360001"
       inkscape:export-filename="/home/rlafuente/code/transparencia/repo/site-datasets/img/parlamento.png"
       ry="68.690376"
       y="-833.53821"
       x="450.6716"
       height="803.01691"
       width="1024.1509"
       id="rect3406"
       style="fill:#3a7ba1;fill-opacity:1;fill-rule:nonzero;stroke:none;stroke-width:8;stroke-miterlimit:4;stroke-opacity:1;stroke-dasharray:none" />
    <path
       id="path4531"
       d="M 939.4375 -887.4375 L 943.03125 -387.65625 L 873.90625 -882.625 L 938.875 -387.09375 L 809.4375 -869.84375 L 934.84375 -386.03125 L 747.0625 -849.1875 L 930.96875 -384.46875 L 687.6875 -821.0625 L 927.28125 -382.4375 L 632.21875 -785.84375 L 923.90625 -380 L 581.5 -744.0625 L 920.84375 -377.125 L 536.28125 -696.375 L 918.15625 -373.9375 L 497.28125 -643.5 L 915.90625 -370.40625 L 465.09375 -586.21875 L 914.0625 -366.65625 L 440.15625 -525.40625 L 912.71875 -362.6875 L 422.90625 -462 L 911.875 -358.59375 L 413.5625 -396.96875 L 911.53125 -354.4375 L 853.59375 -351.75 L 1125.2188 -351.75 L 979.4375 -355.1875 L 1476.3125 -409.0625 L 979 -359.375 L 1465.5 -473.875 L 978.0625 -363.4375 L 1446.8125 -536.84375 L 976.625 -367.375 L 1420.5 -597.0625 L 974.71875 -371.09375 L 1387 -653.59375 L 972.375 -374.5625 L 1346.8125 -705.59375 L 969.625 -377.6875 L 1300.5312 -752.25 L 966.5 -380.46875 L 1248.875 -792.84375 L 963.0625 -382.84375 L 1192.625 -826.8125 L 959.34375 -384.78125 L 1132.625 -853.59375 L 955.4375 -386.25 L 1069.7812 -872.78125 L 951.375 -387.21875 L 1005.0625 -884.125 L 947.21875 -387.6875 L 939.4375 -887.4375 z M 646.625 26.0625 L 615.65625 65.78125 L 647.15625 26.0625 L 646.625 26.0625 z M 715.8125 26.0625 L 669.71875 103.15625 L 716.6875 26.0625 L 715.8125 26.0625 z M 775.40625 26.0625 L 727.96875 133.5625 L 776.5 26.0625 L 775.40625 26.0625 z M 828.8125 26.0625 L 789.5 156.625 L 830 26.0625 L 828.8125 26.0625 z M 878.34375 26.0625 L 853.40625 171.90625 L 879.59375 26.0625 L 878.34375 26.0625 z M 925.78125 26.0625 L 918.71875 179.25 L 927.0625 26.0625 L 925.78125 26.0625 z M 972.625 26.0625 L 984.40625 178.5 L 973.90625 26.0625 L 972.625 26.0625 z M 1020.375 26.0625 L 1049.5312 169.6875 L 1021.625 26.0625 L 1020.375 26.0625 z M 1070.5312 26.0625 L 1113.0625 152.9375 L 1071.6875 26.0625 L 1070.5312 26.0625 z M 1125 26.0625 L 1174.0625 128.5 L 1126.0312 26.0625 L 1125 26.0625 z M 1186.2812 26.0625 L 1231.5938 96.75 L 1187.125 26.0625 L 1186.2812 26.0625 z M 1258.0938 26.0625 L 1284.7812 58.1875 L 1258.5625 26.0625 L 1258.0938 26.0625 z "
       style="fill:url(#linearGradient4617);fill-opacity:1;fill-rule:nonzero;stroke:none;stroke-width:8;stroke-linecap:square;stroke-linejoin:round;stroke-miterlimit:4;stroke-opacity:1;stroke-dasharray:none;stroke-dashoffset:0" />
    <rect
       y="553.4693"
       x="242.85504"
       height="7.4071836"
       width="321.34058"
       id="rect3439"
       style="fill:#ff5555;fill-opacity:1;fill-rule:nonzero;stroke:none" />
    <rect
       style="fill:#ff5555;fill-opacity:1;fill-rule:nonzero;stroke:none"
       id="rect3441"
       width="321.34058"
       height="7.4071836"
       x="242.85504"
       y="563.4693" />
    <rect
       y="573.4693"
       x="242.85504"
       height="7.4071836"
       width="321.34058"
       id="rect3443"
       style="fill:#ff5555;fill-opacity:1;fill-rule:nonzero;stroke:none" />
    <rect
       style="fill:#ff5555;fill-opacity:1;fill-rule:nonzero;stroke:none"
       id="rect3445"
       width="321.34058"
       height="7.4071836"
       x="242.85504"
       y="583.4693" />
    <rect
       y="593.4693"
       x="242.85504"
       height="7.4071836"
       width="321.34058"
       id="rect3447"
       style="fill:#ff5555;fill-opacity:1;fill-rule:nonzero;stroke:none" />
    <rect
       style="fill:#ff5555;fill-opacity:1;fill-rule:nonzero;stroke:none"
       id="rect3449"
       width="321.34058"
       height="7.4071836"
       x="242.85504"
       y="603.4693" />
    <rect
       y="613.4693"
       x="242.85504"
       height="7.4071836"
       width="321.34058"
       id="rect3451"
       style="fill:#ff5555;fill-opacity:1;fill-rule:nonzero;stroke:none" />
    <rect
       style="fill:#ff5555;fill-opacity:1;fill-rule:nonzero;stroke:none"
       id="rect3453"
       width="321.34058"
       height="7.4071836"
       x="242.85504"
       y="623.4693" />
    <rect
       style="fill:#ff5555;fill-opacity:1;fill-rule:nonzero;stroke:none"
       id="rect3455"
       width="34.96233"
       height="77.107712"
       x="572.1543"
       y="553.4693" />
    <rect
       y="553.4693"
       x="199.29715"
       height="77.107712"
       width="34.96233"
       id="rect3457"
       style="fill:#ff5555;fill-opacity:1;fill-rule:nonzero;stroke:none" />
    <path
       inkscape:export-ydpi="26.360001"
       inkscape:export-xdpi="26.360001"
       inkscape:export-filename="/home/rlafuente/code/transparencia/repo/site-datasets/img/parlamento.png"
       inkscape:connector-curvature="0"
       id="path4537"
       d="m 957.90625,-482.5625 c -5.68064,-0.28787 -7.7164,6.45614 -6.21875,10.96875 0,14.61458 0,29.22917 0,43.84375 -40.09229,14.96067 -79.86873,30.77239 -119.875,45.96875 -1.79939,2.43004 0.50396,7.21517 -3.25,7.15625 -4.88227,2.27359 -4.39739,9.08472 -3.28125,13.46875 -2.99511,1.68173 -10.07668,0.51765 -14.59288,1.05207 -109.74812,-0.0659 -219.50072,0.004 -329.25087,-0.0208 0.007,6.23575 -2.61283,15.31791 4.34375,18.9375 0,68.02083 0,136.04167 0,204.0625 104.28125,0.0186 208.56254,-0.0497 312.84375,0.0625 0,20.85417 0,41.708333 0,62.5625 105.45736,0.3013 210.924,0.391446 316.375,0 0,-20.875 0,-41.75 0,-62.625 104.4896,0 208.9792,0 313.4688,0 0.1668,-67.64567 -0.3336,-135.95856 0.25,-203.1875 5.6753,-0.81259 4.139,-8.07063 4.4062,-12.15625 -0.2608,-5.57105 -5.9175,-9.8536 -11.3122,-8.00811 -68.7547,0.8625 -137.5216,0.0734 -206.2816,0.35186 -42.1666,0 -84.3333,0 -126.5,0 0.7229,-5.44184 0.5048,-13.61815 -6.25,-14.9375 1.2381,-7.08447 -7.5887,-10.14549 -12.9687,-11.59375 -34.5262,-13.75148 -69.409,-27.30012 -103.96875,-41.09375 1.44915,-6.45957 -1.31761,-13.39446 -0.0625,-19.625 2.5515,-1.78299 6.66768,0.92805 9.71875,0.0937 8.17661,0.2312 16.35656,-0.35596 24.5312,0.0312 0,-11.04167 0,-22.08333 0,-33.125 -11.91621,-0.62082 -24.30681,1.04112 -35.93745,-0.75 -1.78019,-1.25684 -4.0261,-1.62138 -6.1875,-1.4375 z M 870.125,-300.65625 c 8.81554,0.41183 11.63824,11.04938 9.98874,18.34285 -0.15132,8.13105 0.32596,16.27233 -0.23874,24.3759 -7.04964,-0.30328 -15.39427,0.59905 -21.65625,-0.4375 0.62978,-12.52689 -2.31054,-25.89065 1.78125,-37.75 2.26359,-3.16106 6.33282,-4.64988 10.125,-4.53125 z m 44.625,0.0312 c 8.37605,0.0842 11.77995,10.09699 10.297,17.18601 -0.42979,8.51371 0.29252,17.02078 -0.39075,25.50149 -7.1437,-0.18996 -14.3044,0.36844 -21.4375,-0.1875 0.30944,-12.33344 -2.26844,-25.46375 1.15625,-37.3125 1.98221,-3.59512 6.369,-5.29782 10.375,-5.1875 z m 44.78125,0 c 8.38184,0.0862 11.77761,10.09953 10.297,17.18601 -0.4324,8.49285 0.29532,16.97954 -0.39075,25.43899 -7.06722,-0.15886 -14.88218,0.5441 -21.46875,-0.3125 0.33993,-11.61056 -1.66791,-23.50754 0.375,-34.9375 1.36754,-5.02508 6.22945,-7.53803 11.1875,-7.375 z m 44.78125,0 c 8.3761,0.0842 11.7799,10.09699 10.297,17.18601 -0.4401,8.50224 0.3052,17.00107 -0.3907,25.47024 -7.0454,-0.18314 -14.9129,0.52502 -21.4688,-0.34375 0.33993,-11.61056 -1.66791,-23.50754 0.375,-34.9375 1.36754,-5.02508 6.2295,-7.53803 11.1875,-7.375 z m 44.7813,0 c 8.3818,0.0862 11.7776,10.09953 10.297,17.18601 -0.4324,8.49285 0.2953,16.97954 -0.3908,25.43899 -7.0732,-0.16326 -14.8554,0.54987 -21.4688,-0.3125 0.34,-11.61056 -1.6679,-23.50754 0.375,-34.9375 1.3676,-5.02508 6.2295,-7.53803 11.1876,-7.375 z m -179.50005,93.8125 c 8.60519,-0.14986 12.20252,10.12583 10.59567,17.31158 -0.38516,15.14426 0.15781,30.29266 -0.002,45.43842 -7.35417,0 -14.70833,0 -22.0625,0 0.62987,-19.01008 -1.65564,-38.36222 1.21875,-57.15625 1.87729,-3.61421 6.26887,-5.57261 10.25,-5.59375 z m 45.125,0 c 8.4003,0.15699 11.76343,10.00096 10.28317,17.06158 -0.37294,15.21737 0.14919,30.43837 -0.002,45.65717 -7.38358,-0.19737 -14.78632,0.49237 -22.15625,-0.1875 0.76239,-18.84357 -1.49037,-37.94011 1.09375,-56.625 1.96621,-3.94163 6.51667,-5.98918 10.78125,-5.90625 z m 44.78125,0 c 8.4003,0.15699 11.76343,10.00096 10.28317,17.06158 -0.37294,15.21737 0.14919,30.43837 -0.002,45.65717 -7.39589,-0.0274 -14.79331,0.1879 -22.1875,-0.0625 0.85296,-18.88481 -1.49709,-38.02392 1.125,-56.75 1.96621,-3.94163 6.51667,-5.98918 10.78125,-5.90625 z m 44.7813,0 c 8.4002,0.15699 11.7634,10.00096 10.2831,17.06158 -0.3729,15.21737 0.1492,30.43837 0,45.65717 -7.3959,-0.0274 -14.7933,0.1879 -22.1875,-0.0625 0.85296,-18.88481 -1.49709,-38.02392 1.125,-56.75 1.96621,-3.94163 6.5167,-5.98918 10.7813,-5.90625 z m 44.7812,0 c 8.4003,0.15699 11.7634,10.00096 10.2832,17.06158 -0.373,15.21737 0.1492,30.43837 0,45.65717 -7.3959,-0.0274 -14.7934,0.1879 -22.1876,-0.0625 0.853,-18.88481 -1.497,-38.02392 1.125,-56.75 1.9663,-3.94163 6.5167,-5.98918 10.7813,-5.90625 z"
       style="fill:#3a7ba1;fill-opacity:1;fill-rule:nonzero;stroke:none" />
    <g
       inkscape:export-ydpi="26.360001"
       inkscape:export-xdpi="26.360001"
       inkscape:export-filename="/home/rlafuente/code/transparencia/repo/site-datasets/img/parlamento.png"
       style="fill:#b5d3e5;fill-opacity:1"
       transform="matrix(0.74639281,0,0,0.74639281,655.86288,-551.15258)"
       id="g3499">
      <g
         style="fill:#b5d3e5;fill-opacity:1"
         id="g3459">
        <path
           inkscape:connector-curvature="0"
           style="fill:#b5d3e5;fill-opacity:1;fill-rule:nonzero;stroke:none"
           d="m 242.84375,263.78125 0,131.46875 20,0 0,-46.46875 0.0625,0 C 263.7206,336.89738 273.62815,327.5 285.71875,327.5 c 12.0904,0 21.96659,9.39768 22.78125,21.28125 l 0.0625,0 0,46.46875 14.28125,0 0,-46.46875 0.0625,0 C 323.7206,336.89738 333.62815,327.5 345.71875,327.5 c 12.0904,0 21.96659,9.39768 22.78125,21.28125 l 0.0625,0 0,46.46875 14.28125,0 0,-46.46875 0.0625,0 C 383.7206,336.89738 393.62815,327.5 405.71875,327.5 c 12.0904,0 21.96659,9.39768 22.78125,21.28125 l 0.0625,0 0,46.46875 14.28125,0 0,-46.46875 0.0625,0 C 443.7206,336.89738 453.62815,327.5 465.71875,327.5 c 12.0904,0 21.96659,9.39768 22.78125,21.28125 l 0.0625,0 0,46.46875 14.28125,0 0,-46.46875 0.0625,0 C 503.7206,336.89738 513.62815,327.5 525.71875,327.5 c 12.0904,0 21.96659,9.39768 22.78125,21.28125 l 0.0625,0 0,46.46875 15.71875,0 0,-131.46875 -321.4375,0 z m 0,136.96875 0,145.90625 20,0 0,-68.59375 0.0937,0 c -0.0568,-0.65689 -0.0937,-1.3284 -0.0937,-2 0,-12.62364 10.25136,-22.84375 22.875,-22.84375 12.62366,0 22.84375,10.22011 22.84375,22.84375 0,0.67146 -0.006,1.34324 -0.0625,2 l 0.0625,0 0,68.59375 14.28125,0 0,-68.59375 0.0937,0 c -0.0568,-0.65689 -0.0937,-1.3284 -0.0937,-2 0,-12.62364 10.25136,-22.84375 22.875,-22.84375 12.62366,0 22.84375,10.22011 22.84375,22.84375 0,0.67146 -0.006,1.34324 -0.0625,2 l 0.0625,0 0,68.59375 14.28125,0 0,-68.59375 0.0937,0 c -0.0568,-0.65689 -0.0937,-1.3284 -0.0937,-2 0,-12.62364 10.25136,-22.84375 22.875,-22.84375 12.62366,0 22.84375,10.22011 22.84375,22.84375 0,0.67146 -0.006,1.34324 -0.0625,2 l 0.0625,0 0,68.59375 14.28125,0 0,-68.59375 0.0937,0 c -0.0568,-0.65689 -0.0937,-1.3284 -0.0937,-2 0,-12.62364 10.25136,-22.84375 22.875,-22.84375 12.62366,0 22.84375,10.22011 22.84375,22.84375 0,0.67146 -0.006,1.34324 -0.0625,2 l 0.0625,0 0,68.59375 14.28125,0 0,-68.59375 0.0937,0 c -0.0568,-0.65689 -0.0937,-1.3284 -0.0937,-2 0,-12.62364 10.25136,-22.84375 22.875,-22.84375 12.62366,0 22.84375,10.22011 22.84375,22.84375 0,0.67146 -0.006,1.34324 -0.0625,2 l 0.0625,0 0,68.59375 15.71875,0 0,-145.90625 -15.71875,0 0,0.1875 -45.71875,0 0,-0.1875 -14.28125,0 0,0.1875 -45.71875,0 0,-0.1875 -14.28125,0 0,0.1875 -45.71875,0 0,-0.1875 -14.28125,0 0,0.1875 -45.71875,0 0,-0.1875 -14.28125,0 0,0.1875 -45.71875,0 0,-0.1875 -20,0 z"
           id="path3461" />
        <path
           style="fill:#b5d3e5;fill-opacity:1;fill-rule:nonzero;stroke:none"
           d="m 234.85715,244.50506 337.42859,0 0,10.00001 -337.42859,0 z"
           id="path3463"
           inkscape:connector-curvature="0"
           sodipodi:nodetypes="ccccc" />
        <path
           inkscape:connector-curvature="0"
           style="fill:#b5d3e5;fill-opacity:1;fill-rule:nonzero;stroke:none"
           d="m 405.5625,170.21875 -162.71875,62.625 0,3.09375 320.71875,0 0,-3.4375 -158,-62.28125 z"
           id="path3465" />
        <path
           inkscape:connector-curvature="0"
           style="fill:#b5d3e5;fill-opacity:1;fill-rule:nonzero;stroke:none"
           d="m 572.28125,281.96875 0,264.6875 454.78125,0 0,-264.6875 -454.78125,0 z m 18.0625,65.8125 12.59375,0 0,52.96875 -12.59375,0 0,-52.96875 z m 40,0 12.59375,0 0,52.96875 -12.59375,0 0,-52.96875 z m 40,0 12.59375,0 0,52.96875 -12.59375,0 0,-52.96875 z m 40,0 12.59375,0 0,52.96875 -12.59375,0 0,-52.96875 z m 40,0 12.59375,0 0,52.96875 -12.59375,0 0,-52.96875 z m 40,0 12.59375,0 0,52.96875 -12.59375,0 0,-52.96875 z m 40,0 12.59375,0 0,52.96875 -12.59375,0 0,-52.96875 z m 40,0 12.59375,0 0,52.96875 -12.59375,0 0,-52.96875 z m 40,0 12.59375,0 0,52.96875 -12.59375,0 0,-52.96875 z m 40,0 12.59375,0 0,52.96875 -12.59375,0 0,-52.96875 z m 40,0 12.59375,0 0,52.96875 -12.59375,0 0,-52.96875 z m -400,98.5 12.59375,0 0,18.625 -12.59375,0 0,-18.625 z m 40,0 12.59375,0 0,18.625 -12.59375,0 0,-18.625 z m 40,0 12.59375,0 0,18.625 -12.59375,0 0,-18.625 z m 40,0 12.59375,0 0,18.625 -12.59375,0 0,-18.625 z m 40,0 12.59375,0 0,18.625 -12.59375,0 0,-18.625 z m 40,0 12.59375,0 0,18.625 -12.59375,0 0,-18.625 z m 40,0 12.59375,0 0,18.625 -12.59375,0 0,-18.625 z m 40,0 12.59375,0 0,18.625 -12.59375,0 0,-18.625 z m 40,0 12.59375,0 0,18.625 -12.59375,0 0,-18.625 z m 40,0 12.59375,0 0,18.625 -12.59375,0 0,-18.625 z m 40,0 12.59375,0 0,18.625 -12.59375,0 0,-18.625 z m -400,32.3125 12.59375,0 0,52.96875 -12.59375,0 0,-52.96875 z m 40,0 12.59375,0 0,52.96875 -12.59375,0 0,-52.96875 z m 40,0 12.59375,0 0,52.96875 -12.59375,0 0,-52.96875 z m 40,0 12.59375,0 0,52.96875 -12.59375,0 0,-52.96875 z m 40,0 12.59375,0 0,52.96875 -12.59375,0 0,-52.96875 z m 40,0 12.59375,0 0,52.96875 -12.59375,0 0,-52.96875 z m 40,0 12.59375,0 0,52.96875 -12.59375,0 0,-52.96875 z m 40,0 12.59375,0 0,52.96875 -12.59375,0 0,-52.96875 z m 40,0 12.59375,0 0,52.96875 -12.59375,0 0,-52.96875 z m 40,0 12.59375,0 0,52.96875 -12.59375,0 0,-52.96875 z m 40,0 12.59375,0 0,52.96875 -12.59375,0 0,-52.96875 z"
           id="path3467" />
        <path
           sodipodi:nodetypes="ccccc"
           inkscape:connector-curvature="0"
           id="path3469"
           d="m 572.28577,263.9735 460.66723,0 0,10.00001 -460.66723,0 z"
           style="fill:#b5d3e5;fill-opacity:1;fill-rule:nonzero;stroke:none" />
        <path
           id="path3471"
           d="m 234.953,281.96875 0,264.6875 -454.78125,0 0,-264.6875 454.78125,0 z m -18.0625,65.8125 -12.59375,0 0,52.96875 12.59375,0 0,-52.96875 z m -40,0 -12.59375,0 0,52.96875 12.59375,0 0,-52.96875 z m -40,0 -12.59375,0 0,52.96875 12.59375,0 0,-52.96875 z m -40,0 -12.59375,0 0,52.96875 12.59375,0 0,-52.96875 z m -40,0 -12.59375,0 0,52.96875 12.59375,0 0,-52.96875 z m -40,0 -12.59375,0 0,52.96875 12.59375,0 0,-52.96875 z m -40,0 -12.59375,0 0,52.96875 12.59375,0 0,-52.96875 z m -40,0 -12.59375,0 0,52.96875 12.59375,0 0,-52.96875 z m -40,0 -12.59375,0 0,52.96875 12.59375,0 0,-52.96875 z m -40,0 -12.59375,0 0,52.96875 12.59375,0 0,-52.96875 z m -40,0 -12.59375,0 0,52.96875 12.59375,0 0,-52.96875 z m 400,98.5 -12.59375,0 0,18.625 12.59375,0 0,-18.625 z m -40,0 -12.59375,0 0,18.625 12.59375,0 0,-18.625 z m -40,0 -12.59375,0 0,18.625 12.59375,0 0,-18.625 z m -40,0 -12.59375,0 0,18.625 12.59375,0 0,-18.625 z m -40,0 -12.59375,0 0,18.625 12.59375,0 0,-18.625 z m -40,0 -12.59375,0 0,18.625 12.59375,0 0,-18.625 z m -40,0 -12.59375,0 0,18.625 12.59375,0 0,-18.625 z m -40,0 -12.59375,0 0,18.625 12.59375,0 0,-18.625 z m -40,0 -12.59375,0 0,18.625 12.59375,0 0,-18.625 z m -40,0 -12.59375,0 0,18.625 12.59375,0 0,-18.625 z m -40,0 -12.59375,0 0,18.625 12.59375,0 0,-18.625 z m 400,32.3125 -12.59375,0 0,52.96875 12.59375,0 0,-52.96875 z m -40,0 -12.59375,0 0,52.96875 12.59375,0 0,-52.96875 z m -40,0 -12.59375,0 0,52.96875 12.59375,0 0,-52.96875 z m -40,0 -12.59375,0 0,52.96875 12.59375,0 0,-52.96875 z m -40,0 -12.59375,0 0,52.96875 12.59375,0 0,-52.96875 z m -40,0 -12.59375,0 0,52.96875 12.59375,0 0,-52.96875 z m -40,0 -12.59375,0 0,52.96875 12.59375,0 0,-52.96875 z m -40,0 -12.59375,0 0,52.96875 12.59375,0 0,-52.96875 z m -40,0 -12.59375,0 0,52.96875 12.59375,0 0,-52.96875 z m -40,0 -12.59375,0 0,52.96875 12.59375,0 0,-52.96875 z m -40,0 -12.59375,0 0,52.96875 12.59375,0 0,-52.96875 z"
           style="fill:#b5d3e5;fill-opacity:1;fill-rule:nonzero;stroke:none"
           inkscape:connector-curvature="0" />
        <path
           style="fill:#b5d3e5;fill-opacity:1;fill-rule:nonzero;stroke:none"
           d="m 234.94848,263.9735 -460.66723,0 0,10.00001 460.66723,0 z"
           id="path3473"
           inkscape:connector-curvature="0"
           sodipodi:nodetypes="ccccc" />
        <rect
           style="fill:#b5d3e5;fill-opacity:1;fill-rule:nonzero;stroke:none"
           id="rect3475"
           width="3.0304577"
           height="64.649765"
           x="404.35687"
           y="100.24736" />
        <rect
           style="fill:#b5d3e5;fill-opacity:1;fill-rule:nonzero;stroke:none"
           id="rect3477"
           width="43.941635"
           height="28.284271"
           x="409.11179"
           y="102.81879" />
      </g>
      <rect
         y="553.4693"
         x="242.85504"
         height="7.4071836"
         width="321.34058"
         id="rect3479"
         style="fill:#b5d3e5;fill-opacity:1;fill-rule:nonzero;stroke:none" />
      <rect
         style="fill:#b5d3e5;fill-opacity:1;fill-rule:nonzero;stroke:none"
         id="rect3481"
         width="321.34058"
         height="7.4071836"
         x="242.85504"
         y="563.4693" />
      <rect
         y="573.4693"
         x="242.85504"
         height="7.4071836"
         width="321.34058"
         id="rect3483"
         style="fill:#b5d3e5;fill-opacity:1;fill-rule:nonzero;stroke:none" />
      <rect
         style="fill:#b5d3e5;fill-opacity:1;fill-rule:nonzero;stroke:none"
         id="rect3485"
         width="321.34058"
         height="7.4071836"
         x="242.85504"
         y="583.4693" />
      <rect
         y="593.4693"
         x="242.85504"
         height="7.4071836"
         width="321.34058"
         id="rect3487"
         style="fill:#b5d3e5;fill-opacity:1;fill-rule:nonzero;stroke:none" />
      <rect
         style="fill:#b5d3e5;fill-opacity:1;fill-rule:nonzero;stroke:none"
         id="rect3489"
         width="321.34058"
         height="7.4071836"
         x="242.85504"
         y="603.4693" />
      <rect
         y="613.4693"
         x="242.85504"
         height="7.4071836"
         width="321.34058"
         id="rect3491"
         style="fill:#b5d3e5;fill-opacity:1;fill-rule:nonzero;stroke:none" />
      <rect
         style="fill:#b5d3e5;fill-opacity:1;fill-rule:nonzero;stroke:none"
         id="rect3493"
         width="321.34058"
         height="7.4071836"
         x="242.85504"
         y="623.4693" />
      <rect
         style="fill:#b5d3e5;fill-opacity:1;fill-rule:nonzero;stroke:none"
         id="rect3495"
         width="34.96233"
         height="77.107712"
         x="572.1543"
         y="553.4693" />
      <rect
         y="553.4693"
         x="199.29715"
         height="77.107712"
         width="34.96233"
         id="rect3497"
         style="fill:#b5d3e5;fill-opacity:1;fill-rule:nonzero;stroke:none" />
    </g>
    <g
       inkscape:export-ydpi="26.360001"
       inkscape:export-xdpi="26.360001"
       inkscape:export-filename="/home/rlafuente/code/transparencia/repo/site-datasets/img/parlamento.png"
       transform="translate(23.142857,45.714286)"
       id="g4632">
      <path
         style="fill:#3a7ba1;fill-opacity:1"
         d="m 1330.7188,-838.1875 c -21.4144,12.53057 -39.6535,29.72562 -59.6341,44.39398 -16.8379,13.04668 -33.7322,26.01306 -50.4909,39.13727 -29.6357,-11.21032 -62.3751,-13.07648 -93.6876,-8.65625 -6.1017,0.83633 -11.2693,3.91705 -14.5474,9.27601 -39.6709,44.84735 -79.2453,89.78029 -118.9838,134.56774 44.4715,-11.48921 94.7651,-11.30084 134.6875,13.65625 18.1851,11.40496 33.0543,26.96569 44.9687,44.71875 -21.9616,20.08563 -52.8834,23.91108 -80.9634,29.63043 -24.9617,5.04381 -50.504,7.66791 -75.2866,13.18207 -8.8766,4.6907 -7.7213,18.53117 0.6563,23.15625 12.0869,10.99338 26.7084,19.06546 41.5313,25.71875 20.3094,4.85459 38.5883,-8.43869 55.9715,-16.7604 27.5783,-12.39802 58.6617,-7.41308 88.0285,-10.6146 39.2694,-3.14788 79.6148,-10.46759 113.5667,-31.2175 30.9351,-18.16546 51.9408,-50.28156 59.3395,-85.1575 5.6324,-23.18294 4.4364,-47.12592 4.1671,-70.78119 0.3923,-11.22514 0.4798,-23.71 7.2704,-33.12506 8.1019,-6.92829 21.1429,-5.13059 28.375,-13.28125 2.7985,-6.2478 -4.4791,-10.84637 -9.8437,-11.0625 -8.8637,-2.63697 -19.0079,-4.62414 -24.6563,-12.59375 -11.0744,-10.48364 -28.6091,-13.43133 -42.125,-5.84375 -16.3432,8.47174 -24.7181,25.95248 -29.9204,42.7775 -1.6757,4.25011 -3.4188,8.5582 -5.4233,12.69125 0.4819,-42.5123 9.6856,-85.48173 30.4062,-122.75 2.7713,-3.92208 3.915,-12.3899 -3.4062,-11.0625 z m -45.2813,153.90625 c 1.8118,0.9938 4.0853,1.10272 6,0.625 -9.9566,12.24945 -22.2415,22.56424 -32.7813,34.4375 -2.3154,2.4343 -11.8125,12.43237 -9.6008,10.04096 12.4478,-13.2868 24.9153,-26.5553 37.3508,-39.85346 -0.1479,-1.45333 -1.502,-4.88768 -0.9687,-5.25 z"
         id="path4622"
         inkscape:connector-curvature="0" />
      <path
         inkscape:connector-curvature="0"
         id="path4190"
         style="fill:#ffffff;fill-opacity:1"
         d="m 1295.3782,-698.01484 c 0,0 -5.8462,6.4078 -5.8462,6.4078 -10.4118,-30.6946 -29.733,-51.37547 -54.5578,-64.07381 0,0 89.6893,-69.64409 89.6893,-69.64409 -24.0366,40.5055 -29.394,98.9781 -29.2853,127.3101 z m 54.3,-57.46862 c 0,0 -20.0816,2.92048 -31.1618,35.43292 -9.4846,27.8217 -17.7821,38.1777 -25.5325,46.7359 0,0 -110.471,115.00355 -110.471,115.00355 0,0 -18.9636,17.58351 -41.8369,24.08141 -31.4043,8.9248 -93.589,18.9955 -112.9036,21.3025 -19.311,2.3089 -6.1426,13.4545 14.4741,25.7312 20.615,12.2786 23.689,18.3495 64.8601,-3.8987 41.1695,-22.2501 80.5961,-1.822 164.9829,-26.0664 84.3843,-24.2425 101.5316,-91.7806 99.9924,-141.38126 -1.5392,-49.6035 4.7039,-60.3963 9.6681,-64.5988 4.9642,-4.2004 23.5309,-9.9589 23.5309,-9.9589 0,0 -21.7594,-7.07541 -21.7594,-7.07541 0,0 -2.6347,-3.93525 -11.7879,-10.99226 -9.155,-7.05682 -22.0553,-4.31575 -22.0553,-4.31575 z m -176.8371,180.45558 c -38.048,-50.38316 -94.8034,-67.39826 -157.7965,-56.82116 0,0 108.6099,-122.93948 108.6099,-122.93948 63.2016,-9.90786 134.4255,5.56475 153.8723,73.51358 0,0 -102.4584,109.27696 -102.4584,109.27696 0,0 -1.4392,-1.9869 -2.2273,-3.0299 z" />
    </g>
    <path
       style="fill:#3a7ba1;fill-opacity:1"
       d="m 563.05863,-560.76594 c 7.0489,2.47308 13.42732,6.50717 20.17528,9.69445 5.72598,2.88855 11.464,5.75013 17.17102,8.66614 8.11472,-5.01582 17.68358,-7.44831 27.19189,-7.94089 1.85139,-0.10338 3.55566,0.51023 4.83238,1.90573 14.30124,10.97537 28.57888,21.98159 42.89666,32.93538 -13.80355,-0.84064 -28.65692,2.10451 -39.02207,11.77417 -4.71934,4.41548 -8.2199,9.8687 -10.72123,15.80009 7.64467,4.67453 17.00334,4.02861 25.63092,4.1057 7.66716,0.0566 15.3669,-0.63533 23.00816,-0.42944 2.89295,0.87635 3.34667,5.03325 1.13641,6.88149 -2.94067,3.9435 -6.79827,7.16922 -10.79691,9.9872 -5.7235,2.60158 -11.88952,-0.27706 -17.5052,-1.73782 -8.86301,-2.07978 -17.76326,1.17931 -26.6265,1.9203 -11.78685,1.32576 -24.13139,1.48036 -35.35795,-2.70163 -10.18645,-3.59148 -18.23979,-11.87651 -22.43016,-21.75896 -2.99656,-6.52809 -4.01866,-13.67311 -5.29811,-20.67985 -0.76086,-3.29503 -1.504,-6.97988 -4.05186,-9.37235 -2.79255,-1.58218 -6.54351,-0.30163 -9.14922,-2.29505 -1.18604,-1.68574 0.70064,-3.46296 2.27372,-3.83504 2.46815,-1.28859 5.35209,-2.4587 6.56359,-5.13862 2.67071,-3.73467 7.68371,-5.61326 12.11423,-4.14728 5.31693,1.56485 8.79642,6.2501 11.30058,10.92382 0.73943,1.15984 1.50211,2.33294 2.33199,3.4393 -2.58485,-12.53675 -7.77367,-24.70752 -16.03875,-34.53165 -1.04438,-0.99994 -1.8689,-3.43688 0.37113,-3.46519 z m 22.22506,42.88521 c -0.47838,0.39781 -1.14405,0.56061 -1.73739,0.52943 3.64642,3.04827 7.8698,5.391 11.66697,8.29458 0.82417,0.58643 4.20543,2.99572 3.41437,2.41601 -4.44228,-3.21174 -8.88933,-6.41694 -13.32863,-9.63274 -0.0398,-0.43803 0.16311,-1.53084 -0.0153,-1.60728 z"
       id="path4638"
       inkscape:connector-curvature="0"
       inkscape:export-filename="/home/rlafuente/code/transparencia/repo/site-datasets/img/parlamento.png"
       inkscape:export-xdpi="26.360001"
       inkscape:export-ydpi="26.360001" />
    <path
       inkscape:connector-curvature="0"
       id="path4640"
       style="fill:#b5d3e5;fill-opacity:1"
       d="m 581.55671,-521.36855 c 0,0 2.09597,1.55793 2.09597,1.55793 1.31372,-9.66991 5.83591,-16.89215 12.44328,-22.07136 0,0 -30.50871,-15.43035 -30.50871,-15.43035 9.4311,10.59038 14.37385,27.56406 15.96946,35.94378 z m -19.34997,-13.8651 c 0,0 6.10287,-0.29059 11.24551,8.68182 4.40158,7.67775 7.44886,10.26173 10.23117,12.34582 0,0 39.25671,27.6423 39.25671,27.6423 0,0 6.61487,4.10727 13.74835,4.71359 9.79423,0.83347 28.75139,0.2372 34.59233,-0.19064 5.83999,-0.42706 2.58843,3.62355 -2.79948,8.43638 -5.38729,4.8133 -5.94702,6.78415 -19.39328,2.5741 -13.44589,-4.2107 -23.92471,4.09193 -50.25797,1.77475 -26.33242,-2.31677 -35.28048,-21.29239 -37.67524,-36.0402 -2.39492,-14.74866 -4.86012,-17.57977 -6.56873,-18.53661 -1.70848,-0.95622 -7.52667,-1.59144 -7.52667,-1.59144 0,0 6.02445,-3.34125 6.02445,-3.34125 0,0 0.55259,-1.31442 2.85237,-3.92598 2.30031,-2.6116 6.27045,-2.54264 6.27045,-2.54264 z M 624.8382,-492.06 c 8.35039,-17.07659 24.1468,-25.36609 43.37197,-25.85914 0,0 -39.1626,-30.09467 -39.1626,-30.09467 -19.24835,0.70281 -39.40951,9.36768 -41.25317,30.5671 0,0 36.55959,26.41016 36.55959,26.41016 0,0 0.31121,-0.66991 0.48421,-1.02345 z"
       inkscape:export-filename="/home/rlafuente/code/transparencia/repo/site-datasets/img/parlamento.png"
       inkscape:export-xdpi="26.360001"
       inkscape:export-ydpi="26.360001" />
    <path
       inkscape:connector-curvature="0"
       id="path4644"
       d="m 498.56262,-623.05166 c 3.9442,1.38381 7.51324,3.64108 11.28905,5.42452 3.20396,1.61628 6.41466,3.21747 9.60802,4.84912 4.54058,-2.80659 9.89482,-4.16769 15.21517,-4.44331 1.03595,-0.0579 1.98957,0.2855 2.70396,1.06634 8.00224,6.14126 15.99127,12.29977 24.00276,18.42895 -7.72376,-0.47038 -16.03493,1.17758 -21.83474,6.58822 -2.6407,2.47068 -4.59944,5.52202 -5.99905,8.84092 4.27757,2.61563 9.51419,2.2542 14.34174,2.29734 4.29015,0.0317 8.59853,-0.3555 12.87419,-0.2403 1.61874,0.49036 1.87262,2.81635 0.63587,3.85053 -1.64545,2.20658 -3.80396,4.01153 -6.04139,5.58832 -3.20258,1.45572 -6.65277,-0.15502 -9.79501,-0.97239 -4.95928,-1.16374 -9.93941,0.65988 -14.89882,1.0745 -6.59532,0.74183 -13.50269,0.82833 -19.78449,-1.51169 -5.69982,-2.00961 -10.20605,-6.64549 -12.55076,-12.1752 -1.67672,-3.65278 -2.24864,-7.65076 -2.96455,-11.57138 -0.42574,-1.84373 -0.84156,-3.90558 -2.26722,-5.24428 -1.56256,-0.88531 -3.66141,-0.16878 -5.11943,-1.28419 -0.66365,-0.94326 0.39205,-1.9377 1.27226,-2.1459 1.38105,-0.72102 2.99475,-1.37576 3.67265,-2.8753 1.49439,-2.08973 4.29941,-3.14089 6.7785,-2.32061 2.97508,0.87562 4.92202,3.49724 6.32322,6.11241 0.41375,0.64899 0.8405,1.3054 1.30486,1.92445 -1.44635,-7.01491 -4.34975,-13.82505 -8.97446,-19.32213 -0.58438,-0.55951 -1.04574,-1.9231 0.20767,-1.93894 z m 12.43599,23.99636 c -0.26767,0.22259 -0.64015,0.31369 -0.97214,0.29624 2.04034,1.70566 4.40353,3.01652 6.52823,4.64122 0.46116,0.32814 2.35314,1.67625 1.91051,1.35187 -2.48568,-1.79712 -4.97402,-3.59058 -7.45802,-5.38998 -0.0223,-0.2451 0.0913,-0.85658 -0.009,-0.89935 z"
       style="fill:#3a7ba1;fill-opacity:1"
       inkscape:export-filename="/home/rlafuente/code/transparencia/repo/site-datasets/img/parlamento.png"
       inkscape:export-xdpi="26.360001"
       inkscape:export-ydpi="26.360001" />
    <path
       d="m 508.91319,-601.00691 c 0,0 1.1728,0.87174 1.1728,0.87174 0.73509,-5.41079 3.26547,-9.45198 6.96262,-12.35 0,0 -17.07111,-8.63402 -17.07111,-8.63402 5.27716,5.92582 8.04287,15.42342 8.93569,20.11228 z m -10.82725,-7.75819 c 0,0 3.41485,-0.1626 6.29241,4.8579 2.4629,4.29607 4.168,5.74193 5.72484,6.90808 0,0 21.96603,15.46721 21.96603,15.46721 0,0 3.70134,2.29822 7.69287,2.63748 5.48035,0.46637 16.0878,0.13273 19.35609,-0.10667 3.26775,-0.23896 1.44835,2.02755 -1.56645,4.72057 -3.01445,2.69327 -3.32764,3.79606 -10.85148,1.44033 -7.52362,-2.35609 -13.38703,2.28963 -28.12177,0.99306 -14.73427,-1.29635 -19.74114,-11.91413 -21.08112,-20.16625 -1.34008,-8.25259 -2.71948,-9.83673 -3.67553,-10.37213 -0.95598,-0.53505 -4.21154,-0.89048 -4.21154,-0.89048 0,0 3.37098,-1.86959 3.37098,-1.86959 0,0 0.3092,-0.73549 1.59603,-2.19678 1.28714,-1.46132 3.50863,-1.42273 3.50863,-1.42273 z m 35.04534,24.15775 c 4.67245,-9.55518 13.51131,-14.19356 24.26873,-14.46944 0,0 -21.91338,-16.83944 -21.91338,-16.83944 -10.77038,0.39327 -22.05153,5.24168 -23.08315,17.10378 0,0 20.45687,14.77777 20.45687,14.77777 0,0 0.17413,-0.37485 0.27093,-0.57267 z"
       style="fill:#b5d3e5;fill-opacity:1"
       id="path4646"
       inkscape:connector-curvature="0"
       inkscape:export-filename="/home/rlafuente/code/transparencia/repo/site-datasets/img/parlamento.png"
       inkscape:export-xdpi="26.360001"
       inkscape:export-ydpi="26.360001" />
    <rect
       style="fill:#3a7ba1;fill-opacity:1;fill-rule:nonzero;stroke:none"
       id="rect3164"
       width="478.38367"
       height="478.38367"
       x="1958.6249"
       y="-558.41309"
       ry="0"
       inkscape:export-filename="/home/ana/Desktop/fav.png"
       inkscape:export-xdpi="72.055138"
       inkscape:export-ydpi="72.055138"
       rx="0" />
    <path
       style="fill:url(#linearGradient3226);fill-opacity:1;fill-rule:nonzero;stroke:none"
       d="m 2196.5907,-608.07012 3.5937,499.78125 -69.125,-494.96875 64.9688,495.53125 -129.4375,-482.75 125.4062,483.8125 -187.7812,-463.15625 183.9062,464.71875 -243.2812,-436.59375 239.5937,438.625 -295.0625,-403.40625 291.6875,405.84375 -342.4062,-364.0625 339.3437,366.937499 -384.5625,-319.249999 381.875,322.437499 -420.875,-269.562499 418.625,273.093749 -450.8125,-215.812499 448.9688,219.562499 -473.9063,-158.749999 472.5625,162.718749 -489.8125,-99.312499 488.9688,103.406249 -498.3125,-38.374999 497.9687,42.531249 -57.9375,2.6875 271.6251,0 -145.7813,-3.4375 496.875,-53.874999 -497.3125,49.687499 486.5,-114.499999 -487.4375,110.437499 468.75,-173.406249 -470.1875,169.468749 443.875,-229.687499 -445.7813,225.968749 412.2813,-282.499999 -414.625,279.031249 374.4375,-331.031249 -377.1875,327.906249 330.9062,-374.562499 -334.0312,371.78125 282.375,-412.375 -285.8125,410 229.5625,-443.96875 -233.2813,442.03125 173.2813,-468.8125 -177.1875,467.34375 114.3437,-486.53125 -118.4062,485.5625 53.6875,-496.90625 -57.8438,496.4375 -7.7812,-499.75 z m -292.8125,913.5 -30.9688,39.71875 31.5,-39.71875 -0.5312,0 z m 69.1875,0 -46.0938,77.09375 46.9688,-77.09375 -0.875,0 z m 59.5937,0 -47.4375,107.5 48.5313,-107.5 -1.0938,0 z m 53.4063,0 -39.3125,130.5625 40.5,-130.5625 -1.1875,0 z m 49.5312,0 -24.9375,145.84375 26.1875,-145.84375 -1.25,0 z m 47.4375,0 -7.0625,153.1875 8.3438,-153.1875 -1.2813,0 z m 46.8438,0 11.7812,152.4375 -10.5,-152.4375 -1.2812,0 z m 47.75,0 29.1562,143.625 -27.9062,-143.625 -1.25,0 z m 50.1562,0 42.5313,126.875 -41.375,-126.875 -1.1563,0 z m 54.4688,0 49.0625,102.4375 -48.0313,-102.4375 -1.0312,0 z m 61.2812,0 45.3126,70.6875 -44.4688,-70.6875 -0.8438,0 z m 71.8126,0 26.6874,32.125 -26.2187,-32.125 -0.4687,0 z"
       id="path3224" />
    <path
       style="fill:#3a7ba1;fill-opacity:1;stroke:none"
       d="m 2204.8804,-450.46397 -173.2784,67.18962 8.8408,305.889601 318.2666,-3.5363 5.3044,-307.657751 -159.1334,-61.88517"
       id="path3228"
       inkscape:path-effect="#path-effect3230"
       inkscape:original-d="m 2204.8804,-450.46397 -173.2784,67.18962 8.8408,305.889601 318.2666,-3.5363 5.3044,-307.657751 -159.1334,-61.88517 z"
       sodipodi:nodetypes="cccccc" />
    <g
       style="fill:#b5d3e5;fill-opacity:1"
       id="g3168"
       transform="matrix(0.97612069,0,0,0.97612069,1803.8823,-613.63189)">
      <path
         inkscape:connector-curvature="0"
         style="fill:#b5d3e5;fill-opacity:1;fill-rule:nonzero;stroke:none"
         d="m 242.84375,263.78125 0,131.46875 68.28756,0 0,-46.46875 0.0625,0 c 0.81435,-11.88387 2.44719,-52.01515 94.52494,-52.01515 93.88365,0 93.67903,40.13158 94.49369,52.01515 l 0.0625,0 0,46.46875 64.00631,0 0,-131.46875 -321.4375,0 z m 0,136.96875 0,145.90625 68.28756,0 0,-68.59375 0.0937,0 c -0.0568,-0.65689 -0.0937,-1.3284 -0.0937,-2 0,-12.62364 7.5265,-33.08838 94.58744,-33.08838 88.86888,0 94.55619,20.46474 94.55619,33.08838 0,0.67146 -0.006,1.34324 -0.0625,2 l 0.0625,0 0,68.59375 64.00631,0 0,-145.90625 -64.00631,0 0,0.1875 -189.14363,0 0,-0.1875 -68.28756,0 z"
         id="path3170"
         sodipodi:nodetypes="ccccczcccccccccccszscccccccccc" />
      <path
         style="fill:#b5d3e5;fill-opacity:1;fill-rule:nonzero;stroke:none"
         d="m 234.85715,244.50506 337.42859,0 0,10.00001 -337.42859,0 z"
         id="path3172"
         inkscape:connector-curvature="0"
         sodipodi:nodetypes="ccccc" />
      <path
         inkscape:connector-curvature="0"
         style="fill:#b5d3e5;fill-opacity:1;fill-rule:nonzero;stroke:none"
         d="m 405.5625,170.21875 -162.71875,62.625 0,3.09375 320.71875,0 0,-3.4375 -158,-62.28125 z"
         id="path3174" />
      <rect
         style="fill:#b5d3e5;fill-opacity:1;fill-rule:nonzero;stroke:none"
         id="rect3184"
         width="3.0304577"
         height="64.649765"
         x="404.35687"
         y="100.24736" />
      <rect
         style="fill:#b5d3e5;fill-opacity:1;fill-rule:nonzero;stroke:none"
         id="rect3186"
         width="43.941635"
         height="28.284271"
         x="409.11179"
         y="102.81879" />
    </g>
  </g>
</svg>
