<?xml version="1.0" encoding="UTF-8" standalone="no"?>
<!-- Created with Inkscape (http://www.inkscape.org/) -->

<svg
   xmlns:dc="http://purl.org/dc/elements/1.1/"
   xmlns:cc="http://creativecommons.org/ns#"
   xmlns:rdf="http://www.w3.org/1999/02/22-rdf-syntax-ns#"
   xmlns:svg="http://www.w3.org/2000/svg"
   xmlns="http://www.w3.org/2000/svg"
   xmlns:sodipodi="http://sodipodi.sourceforge.net/DTD/sodipodi-0.dtd"
   xmlns:inkscape="http://www.inkscape.org/namespaces/inkscape"
   width="744.09448819"
   height="1052.3622047"
   id="svg2"
   version="1.1"
   inkscape:version="0.47 r22583"
   sodipodi:docname="header.svg">
  <defs
     id="defs4">
    <inkscape:perspective
       sodipodi:type="inkscape:persp3d"
       inkscape:vp_x="0 : 526.18109 : 1"
       inkscape:vp_y="0 : 1000 : 0"
       inkscape:vp_z="744.09448 : 526.18109 : 1"
       inkscape:persp3d-origin="372.04724 : 350.78739 : 1"
       id="perspective10" />
    <inkscape:perspective
       id="perspective4454"
       inkscape:persp3d-origin="0.5 : 0.33333333 : 1"
       inkscape:vp_z="1 : 0.5 : 1"
       inkscape:vp_y="0 : 1000 : 0"
       inkscape:vp_x="0 : 0.5 : 1"
       sodipodi:type="inkscape:persp3d" />
    <inkscape:perspective
       id="perspective4654"
       inkscape:persp3d-origin="0.5 : 0.33333333 : 1"
       inkscape:vp_z="1 : 0.5 : 1"
       inkscape:vp_y="0 : 1000 : 0"
       inkscape:vp_x="0 : 0.5 : 1"
       sodipodi:type="inkscape:persp3d" />
    <inkscape:perspective
       id="perspective4668"
       inkscape:persp3d-origin="0.5 : 0.33333333 : 1"
       inkscape:vp_z="1 : 0.5 : 1"
       inkscape:vp_y="0 : 1000 : 0"
       inkscape:vp_x="0 : 0.5 : 1"
       sodipodi:type="inkscape:persp3d" />
    <filter
       inkscape:collect="always"
       id="filter4688">
      <feGaussianBlur
         inkscape:collect="always"
         stdDeviation="5.0063029"
         id="feGaussianBlur4690" />
    </filter>
    <clipPath
       clipPathUnits="userSpaceOnUse"
       id="clipPath4696">
      <rect
         style="color:#000000;fill:#ff0000;fill-opacity:1;fill-rule:nonzero;stroke:none;stroke-width:0.84020942;marker:none;visibility:visible;display:inline;overflow:visible;enable-background:accumulate"
         id="rect4698"
         width="759.67639"
         height="12.976908"
         x="80.340057"
         y="1525.0671" />
    </clipPath>
    <inkscape:perspective
       id="perspective2900"
       inkscape:persp3d-origin="0.5 : 0.33333333 : 1"
       inkscape:vp_z="1 : 0.5 : 1"
       inkscape:vp_y="0 : 1000 : 0"
       inkscape:vp_x="0 : 0.5 : 1"
       sodipodi:type="inkscape:persp3d" />
  </defs>
  <sodipodi:namedview
     id="base"
     pagecolor="#ffffff"
     bordercolor="#666666"
     borderopacity="1.0"
     inkscape:pageopacity="0.0"
     inkscape:pageshadow="2"
     inkscape:zoom="0.31723122"
     inkscape:cx="114.01868"
     inkscape:cy="-698.7913"
     inkscape:document-units="px"
     inkscape:current-layer="layer1"
     showgrid="false"
     inkscape:window-width="1280"
     inkscape:window-height="949"
     inkscape:window-x="0"
     inkscape:window-y="24"
     inkscape:window-maximized="1" />
  <metadata
     id="metadata7">
    <rdf:RDF>
      <cc:Work
         rdf:about="">
        <dc:format>image/svg+xml</dc:format>
        <dc:type
           rdf:resource="http://purl.org/dc/dcmitype/StillImage" />
        <dc:title />
      </cc:Work>
    </rdf:RDF>
  </metadata>
  <g
     inkscape:label="Layer 1"
     inkscape:groupmode="layer"
     id="layer1">
    <path
       sodipodi:type="arc"
       style="color:#000000;fill:#ff0000;fill-opacity:1;fill-rule:nonzero;stroke:none;stroke-width:0.84020942;marker:none;visibility:visible;display:inline;overflow:visible;enable-background:accumulate"
       id="path4700"
       sodipodi:cx="56.356133"
       sodipodi:cy="1507.8433"
       sodipodi:rx="93.684387"
       sodipodi:ry="57.900135"
       d="m 150.04052,1507.8433 a 93.684387,57.900135 0 1 1 -187.368775,0 93.684387,57.900135 0 1 1 187.368775,0 z"
       transform="matrix(0.53370686,0,0,0.86355584,73.690302,219.52396)" />
    <rect
       style="color:#000000;fill:#212121;fill-opacity:1;fill-rule:nonzero;stroke:none;stroke-width:0.84020942;marker:none;visibility:visible;display:inline;overflow:visible;filter:url(#filter4688);enable-background:accumulate"
       id="rect4682"
       width="735.64331"
       height="265.61728"
       x="103.51399"
       y="1260.4498"
       transform="matrix(0.00131635,0,0,-1,97.303362,3070.8394)"
       clip-path="url(#clipPath4696)"
       inkscape:export-filename="/home/ana/hacklaviva/transparencia-porto/frontpage-transparencia/img/header-shadow.png"
       inkscape:export-xdpi="90"
       inkscape:export-ydpi="90" />
    <rect
       y="559.92029"
       x="-3.1495657"
       height="265.61728"
       width="735.64331"
       id="rect3961"
       style="color:#000000;fill:#00aa88;fill-opacity:1;fill-rule:nonzero;stroke:none;stroke-width:0.84020941999999998;marker:none;visibility:visible;display:inline;overflow:visible;enable-background:accumulate" />
    <rect
       style="color:#000000;fill:#87decd;fill-opacity:1;fill-rule:nonzero;stroke:none;stroke-width:0.84020942;marker:none;visibility:visible;display:inline;overflow:visible;enable-background:accumulate"
       id="rect3740"
       width="206.08821"
       height="413.66983"
       x="-254.8389"
       y="569.17358" />
    <flowRoot
       style="font-size:40px;font-style:normal;font-weight:normal;text-align:start;line-height:125%;letter-spacing:0;word-spacing:0;writing-mode:lr-tb;text-anchor:start;fill:#000000;fill-opacity:1;stroke:none;font-family:Bitstream Vera Sans"
       id="flowRoot2824"
       xml:space="preserve"
       transform="translate(-43.403619,120.92052)"><flowRegion
         id="flowRegion2826"><rect
           y="239.02885"
           x="78.518517"
           height="325.92593"
           width="260.74075"
           id="rect2828" /></flowRegion><flowPara
         style="font-size:30px;font-style:normal;font-variant:normal;font-weight:normal;font-stretch:normal;font-family:Quicksand;-inkscape-font-specification:Quicksand"
         id="flowPara2830"><flowSpan
           style="font-weight:bold;-inkscape-font-specification:Quicksand Bold"
           id="flowSpan3614">TRANSPARÊNCIA HACKDAY•</flowSpan><flowSpan
           style="fill:#338000;fill-opacity:1"
           id="flowSpan3612">PORTO</flowSpan></flowPara></flowRoot>    <g
       id="g4017"
       inkscape:export-filename="/home/ana/hacklaviva/transparencia-porto/frontpage-transparencia/img/transparencia-porto.png"
       inkscape:export-xdpi="90"
       inkscape:export-ydpi="90"
       transform="matrix(0.70323518,0,0,0.70323518,80.241397,220.55182)">
      <path
         d="m 59.553703,675.26479 c 0,-1.86 -1.500001,-3.3 -3.299999,-3.3 l -25.619989,0 c -1.859998,0 -3.299999,1.44 -3.299999,3.3 0,1.8 1.440001,3.36 3.299999,3.36 l 9.479996,0 0,32.03999 c 0,1.86 1.500001,3.29999 3.299999,3.29999 1.859997,0 3.299998,-1.43999 3.299998,-3.29999 l 0,-32.03999 9.539996,0 c 1.799998,0 3.299999,-1.56 3.299999,-3.36"
         style="font-size:40px;font-style:normal;font-weight:bold;text-align:start;line-height:125%;letter-spacing:0;word-spacing:0;writing-mode:lr-tb;text-anchor:start;fill:#ffffff;fill-opacity:1;stroke:none;font-family:Bitstream Vera Sans;-inkscape-font-specification:Quicksand Bold"
         id="path3652" />
      <path
         d="m 95.159949,706.94478 c -0.12,-0.6 -0.3,-1.74 -0.24,-3.54 0,-2.52 -0.78002,-4.74 -1.980019,-6.48 -0.59998,-0.9 -1.32,-1.62 -2.099999,-2.22 2.879998,-2.4 4.680018,-5.88 4.680018,-9.83999 0,-7.13998 -5.700018,-12.9 -12.839995,-12.9 l -10.680016,0 c 0,0 0,0 0,0 -0.06,0 -0.06,0 -0.06,0 -1.859979,0 -3.299979,1.44 -3.299979,3.3 l 0,35.39999 c 0,1.8 1.44,3.29999 3.299979,3.29999 1.859999,0 3.360019,-1.49999 3.360019,-3.29999 l 0,-13.02 7.079977,0 c 0.54,0.12 2.100019,0.6 3.360019,1.44 0.719979,0.48 1.439999,1.08 1.799999,1.74 0.41998,0.66 0.66,1.44 0.72,2.58 0,3.3 0.419999,5.46 1.259999,7.2 0.47998,0.84 1.14,1.62 1.919979,2.1 0.84,0.54 1.74002,0.66 2.339999,0.66 0.06,0 0.06,0 0.06,0 0.6,0 1.08002,-0.12 1.32002,-0.18 1.739979,-0.6 2.699979,-2.46 2.099999,-4.2 -0.36,-1.02 -1.14002,-1.74 -2.099999,-2.04 m -12.479995,-15.96 -7.379997,0 0,-12.35999 7.379997,0 c 3.419978,0 6.179997,2.76 6.179997,6.24 0,3.36 -2.760019,6.11999 -6.179997,6.11999"
         style="font-size:40px;font-style:normal;font-weight:bold;text-align:start;line-height:125%;letter-spacing:0;word-spacing:0;writing-mode:lr-tb;text-anchor:start;fill:#ffffff;fill-opacity:1;stroke:none;font-family:Bitstream Vera Sans;-inkscape-font-specification:Quicksand Bold"
         id="path3654" />
      <path
         d="m 131.33991,711.86478 c 0.48,1.32 1.74002,2.09999 3.06,2.09999 0.42,0 0.84002,-0.06 1.14,-0.18 1.74,-0.65999 2.58,-2.57999 1.98,-4.31999 l -13.25999,-35.33999 c -0.53998,-1.32 -1.8,-2.16 -3.17998,-2.1 -1.32,-0.06 -2.64002,0.78 -3.18002,2.1 l -13.25997,35.33999 c -0.6,1.74 0.23999,3.66 1.97997,4.31999 0.36,0.12 0.72002,0.18 1.14002,0.18 1.31998,0 2.58,-0.77999 3.12,-2.09999 l 2.94,-7.8 14.57998,0 2.93999,7.8 m -15.11999,-14.4 4.86002,-12.89999 4.85998,12.89999 -9.72,0"
         style="font-size:40px;font-style:normal;font-weight:bold;text-align:start;line-height:125%;letter-spacing:0;word-spacing:0;writing-mode:lr-tb;text-anchor:start;fill:#ffffff;fill-opacity:1;stroke:none;font-family:Bitstream Vera Sans;-inkscape-font-specification:Quicksand Bold"
         id="path3656" />
      <path
         d="m 152.36899,685.76479 19.19999,26.63999 c 0.06,0.12 0.18,0.24 0.3,0.36 0.6,0.72 1.5,1.19999 2.46,1.19999 1.8,0 3.3,-1.49999 3.3,-3.29999 l 0,-34.85999 c 0,-1.74 -1.5,-3.24 -3.3,-3.24 -1.8,0 -3.24,1.5 -3.24,3.24 l 0,24.71999 -19.37999,-26.81999 c -1.02,-1.44 -3.06,-1.74 -4.56,-0.72 -0.9,0.66 -1.38,1.74 -1.32,2.76 0,0.06 0,0.06 0,0.06 l 0,34.85999 c 0,1.8 1.44,3.29999 3.3,3.29999 1.74,0 3.24,-1.49999 3.24,-3.29999 l 0,-24.89999"
         style="font-size:40px;font-style:normal;font-weight:bold;text-align:start;line-height:125%;letter-spacing:0;word-spacing:0;writing-mode:lr-tb;text-anchor:start;fill:#ffffff;fill-opacity:1;stroke:none;font-family:Bitstream Vera Sans;-inkscape-font-specification:Quicksand Bold"
         id="path3658" />
      <path
         d="m 191.21803,707.90478 0,0 c 3.42,2.7 8.88,5.93999 15.36,5.99999 l 0,0 c 4.25999,0 8.15999,-1.25999 11.09999,-3.41999 l 0,0 c 3,-2.16 5.16,-5.46 5.16,-9.3 l 0,0 c 0,-1.86 -0.54,-3.66 -1.44,-5.1 l 0,0 c -1.38,-2.22 -3.54,-3.78 -6,-4.98 l 0,0 c -2.4,-1.14 -5.22,-1.92 -8.27999,-2.51999 l 0,0 -0.12,0 0,0 c -3.24,-0.6 -5.94,-1.56 -7.5,-2.64 l 0,0 c -0.78,-0.54 -1.32,-1.08 -1.62,-1.56 l 0,0 c -0.3,-0.48 -0.42,-0.96 -0.42,-1.68 l 0,0 c 0,-1.26 0.66,-2.58 2.28,-3.78 l 0,0 c 1.62,-1.2 4.02,-2.04 6.72,-2.04 l 0,0 c 3.65999,0 6.59999,1.8 9.65999,3.84 l 0,0 c 1.44,0.96 3.36,0.54 4.26,-0.9 l 0,0 c 0.96,-1.38 0.54,-3.3 -0.84,-4.26 l 0,0 c -3.06,-1.98 -7.32002,-4.8 -13.07999,-4.8 l 0,0 c -3.9,0 -7.56,1.14 -10.38,3.18 l 0,0 c -2.76,2.04 -4.8,5.16 -4.8,8.76 l 0,0 c 0,1.8 0.48,3.48 1.38,4.92 l 0,0 c 1.32,2.09999 3.3,3.59999 5.58,4.67999 l 0,0 c 2.28,1.08 4.92,1.8 7.74,2.34 l 0,0 0.12,0 0,0 c 3.54,0.66 6.47999,1.68 8.21999,2.82 l 0,0 c 0.9,0.6 1.44,1.2 1.8,1.8 l 0,0 c 0.36,0.6 0.54,1.14 0.54,1.92 l 0,0 c 0,1.5 -0.78,3 -2.58,4.32 l 0,0 c -1.8,1.32 -4.49999,2.22 -7.49999,2.22 l 0,0 c -4.26,0.06 -8.82,-2.46 -11.46,-4.62 l 0,0 c -1.32,-1.08 -3.3,-0.9 -4.38,0.42 l 0,0 c -1.02,1.32 -0.84,3.3 0.48,4.38"
         style="font-size:40px;font-style:normal;font-weight:bold;text-align:start;line-height:125%;letter-spacing:0;word-spacing:0;writing-mode:lr-tb;text-anchor:start;fill:#ffffff;fill-opacity:1;stroke:none;font-family:Bitstream Vera Sans;-inkscape-font-specification:Quicksand Bold"
         id="path3660" />
      <path
         d="m 259.07613,684.86479 c 0,-7.13998 -5.76,-12.9 -12.9,-12.9 l -10.68,0 c 0,0 0,0 0,0 0,0 -0.06,0 -0.06,0 -1.79999,0 -3.29999,1.44 -3.29999,3.3 l 0,35.39999 c 0,1.8 1.5,3.29999 3.29999,3.29999 1.86,0 3.36,-1.49999 3.36,-3.29999 l 0,-13.02 7.38,0 c 7.14,0 12.9,-5.76 12.9,-12.77999 m -20.28,-6.24 7.38,0 c 3.48,0 6.18,2.76 6.24,6.24 -0.06,3.36 -2.76,6.11999 -6.24,6.11999 l -7.38,0 0,-12.35999"
         style="font-size:40px;font-style:normal;font-weight:bold;text-align:start;line-height:125%;letter-spacing:0;word-spacing:0;writing-mode:lr-tb;text-anchor:start;fill:#ffffff;fill-opacity:1;stroke:none;font-family:Bitstream Vera Sans;-inkscape-font-specification:Quicksand Bold"
         id="path3662" />
      <path
         d="m 287.31643,711.86478 c 0.48,1.32 1.74,2.09999 3.06,2.09999 0.42,0 0.84,-0.06 1.14,-0.18 1.74,-0.65999 2.58,-2.57999 1.98,-4.31999 l -13.25999,-35.33999 c -0.54,-1.32 -1.8,-2.16 -3.18,-2.1 -1.32,-0.06 -2.64,0.78 -3.18,2.1 l -13.26,35.33999 c -0.6,1.74 0.24,3.66 1.98,4.31999 0.36,0.12 0.72,0.18 1.14,0.18 1.32,0 2.58,-0.77999 3.12,-2.09999 l 2.94,-7.8 14.58,0 2.93999,7.8 m -15.11999,-14.4 4.86,-12.89999 4.86,12.89999 -9.72,0"
         style="font-size:40px;font-style:normal;font-weight:bold;text-align:start;line-height:125%;letter-spacing:0;word-spacing:0;writing-mode:lr-tb;text-anchor:start;fill:#ffffff;fill-opacity:1;stroke:none;font-family:Bitstream Vera Sans;-inkscape-font-specification:Quicksand Bold"
         id="path3664" />
      <path
         d="m 327.42548,706.94478 c -0.12,-0.6 -0.3,-1.74 -0.24,-3.54 0,-2.52 -0.78,-4.74 -1.98,-6.48 -0.6,-0.9 -1.32,-1.62 -2.1,-2.22 2.88,-2.4 4.68,-5.88 4.68,-9.83999 0,-7.13998 -5.70002,-12.9 -12.84,-12.9 l -10.67999,0 c 0,0 0,0 0,0 -0.06,0 -0.06,0 -0.06,0 -1.86,0 -3.3,1.44 -3.3,3.3 l 0,35.39999 c 0,1.8 1.44,3.29999 3.3,3.29999 1.86,0 3.36,-1.49999 3.36,-3.29999 l 0,-13.02 7.07999,0 c 0.54,0.12 2.1,0.6 3.36,1.44 0.72,0.48 1.44,1.08 1.8,1.74 0.42,0.66 0.66,1.44 0.72,2.58 0,3.3 0.42,5.46 1.26,7.2 0.48,0.84 1.14,1.62 1.92,2.1 0.84,0.54 1.74,0.66 2.34,0.66 0.06,0 0.06,0 0.06,0 0.6,0 1.08,-0.12 1.32,-0.18 1.74,-0.6 2.7,-2.46 2.1,-4.2 -0.36,-1.02 -1.14,-1.74 -2.1,-2.04 m -12.48,-15.96 -7.37999,0 0,-12.35999 7.37999,0 c 3.42,0 6.18,2.76 6.18,6.24 0,3.36 -2.76,6.11999 -6.18,6.11999"
         style="font-size:40px;font-style:normal;font-weight:bold;text-align:start;line-height:125%;letter-spacing:0;word-spacing:0;writing-mode:lr-tb;text-anchor:start;fill:#ffffff;fill-opacity:1;stroke:none;font-family:Bitstream Vera Sans;-inkscape-font-specification:Quicksand Bold"
         id="path3666" />
      <path
         d="m 342.54547,713.96477 c 0,0 0.06,-0.06 0.06,-0.06 0,0 0,0.06 0.12,0.06 l 19.43999,0 c 1.74,0 3.3,-1.49999 3.3,-3.29999 0,-1.86 -1.56,-3.36 -3.3,-3.36 l -16.25999,0 0,-11.04 13.97999,0 c 1.8,0 3.3,-1.5 3.3,-3.36 0,-1.74 -1.5,-3.3 -3.3,-3.3 l -13.97999,0 0,-10.97999 16.25999,0 c 1.74,0 3.3,-1.5 3.3,-3.36 0,-1.86 -1.56,-3.3 -3.3,-3.3 l -19.43999,0 c -0.12,0 -0.12,0 -0.12,0 0,0 -0.06,0 -0.06,0 -1.86,0 -3.3,1.44 -3.3,3.3 l 0,35.39999 c 0,1.8 1.44,3.29999 3.3,3.29999 m 9.78,-51.71997 3.12,2.69999 c 1.62,1.32 2.76,1.62 4.43999,1.62 0.96,0 1.74,-0.42 1.74,-1.2 0,-0.42 -0.36,-0.96 -0.72,-1.44 l -3.95999,-4.97999 c -0.84,-1.08 -1.8,-1.74 -3.48,-1.74 l -2.16,0 c -1.68,0 -2.58,0.66 -3.48,1.74 l -3.96,4.97999 c -0.36,0.48 -0.72,1.02 -0.72,1.44 0,0.78 0.72,1.2 1.62,1.2 1.68,0 2.88,-0.3 4.44,-1.62 l 3.12,-2.69999"
         style="font-size:40px;font-style:normal;font-weight:bold;text-align:start;line-height:125%;letter-spacing:0;word-spacing:0;writing-mode:lr-tb;text-anchor:start;fill:#ffffff;fill-opacity:1;stroke:none;font-family:Bitstream Vera Sans;-inkscape-font-specification:Quicksand Bold"
         id="path3668" />
      <path
         d="m 381.47046,685.76479 19.19999,26.63999 c 0.06,0.12 0.18,0.24 0.3,0.36 0.6,0.72 1.5,1.19999 2.46,1.19999 1.8,0 3.3,-1.49999 3.3,-3.29999 l 0,-34.85999 c 0,-1.74 -1.5,-3.24 -3.3,-3.24 -1.8,0 -3.24,1.5 -3.24,3.24 l 0,24.71999 -19.37999,-26.81999 c -1.02,-1.44 -3.06,-1.74 -4.56,-0.72 -0.9,0.66 -1.38,1.74 -1.32,2.76 0,0.06 0,0.06 0,0.06 l 0,34.85999 c 0,1.8 1.44,3.29999 3.3,3.29999 1.74,0 3.24,-1.49999 3.24,-3.29999 l 0,-24.89999"
         style="font-size:40px;font-style:normal;font-weight:bold;text-align:start;line-height:125%;letter-spacing:0;word-spacing:0;writing-mode:lr-tb;text-anchor:start;fill:#ffffff;fill-opacity:1;stroke:none;font-family:Bitstream Vera Sans;-inkscape-font-specification:Quicksand Bold"
         id="path3670" />
      <path
         d="m 441.31949,713.96477 c 5.28,0 10.08,-1.73999 13.86,-4.67999 1.44,-1.14 1.68,-3.3 0.6,-4.8 -1.2,-1.44 -3.42,-1.68 -4.8,-0.66 -2.7,2.16 -5.94,3.3 -9.66,3.3 -4.14,0 -7.97999,-1.68 -10.79999,-4.32 -2.7,-2.64 -4.38,-6.36 -4.38,-10.44 0,-4.07997 1.68,-7.67999 4.38,-10.43999 2.82,-2.64 6.65999,-4.32 10.79999,-4.32 3.72,0 7.02,1.14 9.66,3.3 1.38,1.08 3.6,0.84 4.8,-0.66 1.08,-1.5 0.84,-3.6 -0.6,-4.8 -3.78,-2.94 -8.58,-4.68 -13.86,-4.68 -11.99999,0.06 -21.95999,9.72002 -22.01999,21.59999 0.06,11.94 10.02,21.59999 22.01999,21.59999"
         style="font-size:40px;font-style:normal;font-weight:bold;text-align:start;line-height:125%;letter-spacing:0;word-spacing:0;writing-mode:lr-tb;text-anchor:start;fill:#ffffff;fill-opacity:1;stroke:none;font-family:Bitstream Vera Sans;-inkscape-font-specification:Quicksand Bold"
         id="path3672" />
      <path
         d="m 467.86854,710.66478 0,0 c 0,1.86 1.44,3.29999 3.3,3.29999 l 0,0 c 1.8,0 3.36,-1.43999 3.36,-3.29999 l 0,-35.39999 0,0 c 0,-1.86 -1.56,-3.3 -3.36,-3.3 l 0,0 c -1.86,0 -3.3,1.44 -3.3,3.3 l 0,35.39999"
         style="font-size:40px;font-style:normal;font-weight:bold;text-align:start;line-height:125%;letter-spacing:0;word-spacing:0;writing-mode:lr-tb;text-anchor:start;fill:#ffffff;fill-opacity:1;stroke:none;font-family:Bitstream Vera Sans;-inkscape-font-specification:Quicksand Bold"
         id="path3674" />
      <path
         d="m 510.08976,711.86478 c 0.48,1.32 1.74002,2.09999 3.06,2.09999 0.42,0 0.84002,-0.06 1.14,-0.18 1.74,-0.65999 2.58,-2.57999 1.98,-4.31999 l -13.25999,-35.33999 c -0.53998,-1.32 -1.8,-2.16 -3.17998,-2.1 -1.32,-0.06 -2.64002,0.78 -3.18002,2.1 l -13.25999,35.33999 c -0.59998,1.74 0.24002,3.66 1.97999,4.31999 0.36,0.12 0.72002,0.18 1.14,0.18 1.32,0 2.58002,-0.77999 3.12,-2.09999 l 2.94002,-7.8 14.57998,0 2.93999,7.8 m -15.11999,-14.4 4.86002,-12.89999 4.86,12.89999 -9.72002,0"
         style="font-size:40px;font-style:normal;font-weight:bold;text-align:start;line-height:125%;letter-spacing:0;word-spacing:0;writing-mode:lr-tb;text-anchor:start;fill:#ffffff;fill-opacity:1;stroke:none;font-family:Bitstream Vera Sans;-inkscape-font-specification:Quicksand Bold"
         id="path3676" />
      <path
         d="m 43.486734,770.96475 c 1.859997,0 3.359998,-1.44 3.359998,-3.3 l 0,-14.39999 15.539994,0 0,14.39999 c 0,1.86 1.440001,3.3 3.299999,3.3 1.859997,0 3.359998,-1.44 3.359998,-3.3 l 0,-35.39998 c 0,-1.86 -1.500001,-3.3 -3.359998,-3.3 -1.859998,0 -3.299999,1.44 -3.299999,3.3 l 0,14.39999 -15.539994,0 0,-14.39999 c 0,-1.86 -1.500001,-3.3 -3.359998,-3.3 -1.859998,0 -3.299999,1.44 -3.299999,3.3 l 0,35.39998 c 0,1.86 1.440001,3.3 3.299999,3.3"
         style="font-size:40px;font-style:normal;font-weight:bold;text-align:start;line-height:125%;letter-spacing:0;word-spacing:0;writing-mode:lr-tb;text-anchor:start;fill:#ffffff;fill-opacity:1;stroke:none;font-family:Bitstream Vera Sans;-inkscape-font-specification:Quicksand Bold"
         id="path3678" />
      <path
         d="m 103.21859,768.86475 c 0.48,1.32 1.74,2.1 3.06,2.1 0.42,0 0.84,-0.06 1.14,-0.18 1.74,-0.66 2.58,-2.58 1.98,-4.32 L 96.138592,731.12477 c -0.539999,-1.32 -1.799999,-2.16 -3.179998,-2.1 -1.32,-0.06 -2.639999,0.78 -3.179999,2.1 l -13.259999,35.33998 c -0.599999,1.74 0.24,3.66 1.980003,4.32 0.36,0.12 0.72,0.18 1.14,0.18 1.32,0 2.579999,-0.78 3.119999,-2.1 l 2.939999,-7.79999 14.579993,0 2.94,7.79999 m -15.119994,-14.39999 4.859998,-12.9 4.859998,12.9 -9.719996,0"
         style="font-size:40px;font-style:normal;font-weight:bold;text-align:start;line-height:125%;letter-spacing:0;word-spacing:0;writing-mode:lr-tb;text-anchor:start;fill:#ffffff;fill-opacity:1;stroke:none;font-family:Bitstream Vera Sans;-inkscape-font-specification:Quicksand Bold"
         id="path3680" />
      <path
         d="m 135.46388,770.96475 c 5.27999,0 10.08001,-1.74 13.85999,-4.68 1.44,-1.14 1.68,-3.29999 0.6,-4.79999 -1.2,-1.44 -3.42,-1.68 -4.8,-0.66 -2.69998,2.16 -5.93999,3.29999 -9.65999,3.29999 -4.13998,0 -7.98,-1.67999 -10.8,-4.31999 -2.69998,-2.64 -4.38,-6.36 -4.38,-10.44 0,-4.07998 1.68002,-7.68 4.38,-10.44 2.82,-2.63999 6.66002,-4.31999 10.8,-4.31999 3.72,0 7.02001,1.14 9.65999,3.3 1.38,1.07999 3.6,0.84 4.8,-0.66 1.08,-1.5 0.84,-3.6 -0.6,-4.8 -3.77998,-2.94 -8.58,-4.68 -13.85999,-4.68 -11.99998,0.06 -21.95999,9.72002 -22.01999,21.59999 0.06,11.94 10.02001,21.59999 22.01999,21.59999"
         style="font-size:40px;font-style:normal;font-weight:bold;text-align:start;line-height:125%;letter-spacing:0;word-spacing:0;writing-mode:lr-tb;text-anchor:start;fill:#ffffff;fill-opacity:1;stroke:none;font-family:Bitstream Vera Sans;-inkscape-font-specification:Quicksand Bold"
         id="path3682" />
      <path
         d="m 164.89292,770.96475 c 1.86,0 3.3,-1.5 3.3,-3.3 l 0,-8.51999 6.24,-6.36 12.95999,16.97999 c 0.66,0.78 1.56002,1.2 2.46,1.2 0.78,0 1.50002,-0.24 2.1,-0.78 1.44,-1.14 1.68,-3.24 0.48,-4.62 l -13.31999,-17.45999 13.19999,-13.13999 c 1.26,-1.32 1.26,-3.42 0,-4.68 -1.31998,-1.32 -3.36,-1.32 -4.67998,0 l -19.44001,19.49999 0,-17.21999 c 0,-1.74 -1.44,-3.3 -3.3,-3.3 -1.85998,0 -3.3,1.56 -3.3,3.3 l 0,35.09998 c 0,1.8 1.44002,3.3 3.3,3.3"
         style="font-size:40px;font-style:normal;font-weight:bold;text-align:start;line-height:125%;letter-spacing:0;word-spacing:0;writing-mode:lr-tb;text-anchor:start;fill:#ffffff;fill-opacity:1;stroke:none;font-family:Bitstream Vera Sans;-inkscape-font-specification:Quicksand Bold"
         id="path3684" />
      <path
         d="m 207.78355,770.96475 c 0,0 0,0 0,0 0,0 0,0 0,0 l 7.07999,0 c 11.57998,0 20.93999,-9.41999 20.93999,-21.05999 0,-11.51997 -9.36001,-20.93999 -20.93999,-20.93999 l -7.07999,0 c 0,0 0,0 0,0 0,0 0,0 0,0 -1.86,0 -3.3,1.44 -3.3,3.3 l 0,35.39998 c 0,1.8 1.44,3.3 3.3,3.3 m 3.35999,-35.33998 3.72,0 c 7.91998,0 14.28,6.42001 14.28,14.27999 0,7.98 -6.36002,14.33999 -14.28,14.39999 l -3.72,0 0,-28.67998"
         style="font-size:40px;font-style:normal;font-weight:bold;text-align:start;line-height:125%;letter-spacing:0;word-spacing:0;writing-mode:lr-tb;text-anchor:start;fill:#ffffff;fill-opacity:1;stroke:none;font-family:Bitstream Vera Sans;-inkscape-font-specification:Quicksand Bold"
         id="path3686" />
      <path
         d="m 268.10132,768.86475 c 0.48,1.32 1.74,2.1 3.06,2.1 0.42,0 0.84,-0.06 1.14,-0.18 1.74,-0.66 2.58,-2.58 1.98,-4.32 l -13.26,-35.33998 c -0.54,-1.32 -1.79999,-2.16 -3.17999,-2.1 -1.32,-0.06 -2.64,0.78 -3.18,2.1 l -13.26,35.33998 c -0.6,1.74 0.24,3.66 1.98,4.32 0.36,0.12 0.72,0.18 1.14,0.18 1.32,0 2.58,-0.78 3.12,-2.1 l 2.94,-7.79999 14.57999,0 2.94,7.79999 m -15.11999,-14.39999 4.86,-12.9 4.85999,12.9 -9.71999,0"
         style="font-size:40px;font-style:normal;font-weight:bold;text-align:start;line-height:125%;letter-spacing:0;word-spacing:0;writing-mode:lr-tb;text-anchor:start;fill:#ffffff;fill-opacity:1;stroke:none;font-family:Bitstream Vera Sans;-inkscape-font-specification:Quicksand Bold"
         id="path3688" />
      <path
         d="m 306.57725,730.04477 c -1.44,-1.08 -3.48,-0.78 -4.62,0.72 l -10.26,14.03999 -10.25999,-14.03999 c -1.02,-1.5 -3.06,-1.8 -4.56,-0.72 -1.5,1.08 -1.8,3.12 -0.66,4.56 l 12.17999,16.85999 0,16.19999 c 0,1.86 1.56,3.3 3.3,3.3 1.86,0 3.3,-1.44 3.3,-3.3 l 0,-16.19999 12.3,-16.85999 c 1.02,-1.44 0.72,-3.48 -0.72,-4.56"
         style="font-size:40px;font-style:normal;font-weight:bold;text-align:start;line-height:125%;letter-spacing:0;word-spacing:0;writing-mode:lr-tb;text-anchor:start;fill:#ffffff;fill-opacity:1;stroke:none;font-family:Bitstream Vera Sans;-inkscape-font-specification:Quicksand Bold"
         id="path3690" />
      <g
         style="fill:#ffffff;fill-opacity:0.68235294"
         transform="matrix(1.9999992,0,0,1.9999992,-63.196712,-273.74091)"
         id="g3732">
        <path
           id="path3694"
           style="font-size:40px;font-style:normal;font-weight:normal;text-align:start;line-height:125%;letter-spacing:0;word-spacing:0;writing-mode:lr-tb;text-anchor:start;fill:#ffffff;fill-opacity:0.68235294;stroke:none;font-family:Bitstream Vera Sans"
           d="m 191.58532,521.63304 c 0,0.39 0.33001,0.72 0.72,0.72 0.42,0 0.75,-0.33 0.75,-0.72 l 0,-8.25 5.19,-0.06 c 3.3,0 5.97,-2.67 5.97,-5.97 0,-3.29999 -2.67,-6 -5.97,-6 l -5.85,0 -0.09,0 c -0.38999,0 -0.72,0.33 -0.72,0.72 l 0,19.56 m 1.47,-9.72 0,-9.09 5.19,0 c 2.49,0 4.53,2.04001 4.53,4.53 0,2.49 -2.04,4.53 -4.53,4.56 l -5.19,0" />
        <path
           id="path3696"
           style="font-size:40px;font-style:normal;font-weight:normal;text-align:start;line-height:125%;letter-spacing:0;word-spacing:0;writing-mode:lr-tb;text-anchor:start;fill:#ffffff;fill-opacity:0.68235294;stroke:none;font-family:Bitstream Vera Sans"
           d="m 208.17486,511.70304 0,0 c 0.03,5.88 4.47,10.65 10.14,10.65 l 0,0 c 5.60999,0 10.02,-4.77 10.05,-10.65 l 0,0 c -0.03,-5.87999 -4.44001,-10.65 -10.05,-10.65 l 0,0 c -5.67,0 -10.11,4.77001 -10.14,10.65 m 1.47,0 0,0 c 0,-5.18999 3.9,-9.15 8.67,-9.15 l 0,0 c 4.61999,0 8.52,3.96001 8.55,9.15 l 0,0 c -0.03,5.13 -3.93001,9.18 -8.55,9.18 l 0,0 c -4.77,0 -8.67,-4.05 -8.67,-9.18" />
        <path
           id="path3698"
           style="font-size:40px;font-style:normal;font-weight:normal;text-align:start;line-height:125%;letter-spacing:0;word-spacing:0;writing-mode:lr-tb;text-anchor:start;fill:#ffffff;fill-opacity:0.68235294;stroke:none;font-family:Bitstream Vera Sans"
           d="m 245.60314,521.06304 c 0.33,0.66 0.96,0.96 1.35,0.96 l 0.06,0 c 0.18,0 0.33,-0.03 0.36,-0.03 0.39,-0.15 0.57,-0.57 0.48,-0.96 -0.12,-0.33 -0.48,-0.51 -0.81,-0.48 -0.03,-0.03 -0.18,-0.15 -0.3,-0.51 -0.15,-0.45 -0.27,-1.2 -0.27,-2.43 0,-2.36999 -1.44,-3.9 -2.82,-4.68 -0.12,-0.06 -0.21,-0.09 -0.3,-0.15 2.04,-0.96 3.45,-3.03 3.45,-5.43 0,-3.32999 -2.67001,-6 -5.97,-6 l -5.85,0 -0.09,0 -0.06,0 c -0.36,0.03 -0.66,0.36 -0.66,0.72 l 0,19.56 c 0,0.39 0.33,0.72 0.72,0.72 0.42,0 0.75,-0.33 0.75,-0.72 l 0,-8.31 5.1,0 c 0.03,0 0.06,0.03 0.15,0.06 0.39,0.06 1.5,0.39 2.43,1.05 0.93,0.69 1.71,1.65 1.71,3.18 0,1.77 0.21,2.76 0.57,3.45 m -0.24,-13.71 c 0,2.46 -1.98,4.47 -4.41,4.53 l -0.27,0 -5.04,0 0,-9.06 5.19,0 c 2.49,0 4.53,2.01001 4.53,4.53" />
        <path
           id="path3700"
           style="font-size:40px;font-style:normal;font-weight:normal;text-align:start;line-height:125%;letter-spacing:0;word-spacing:0;writing-mode:lr-tb;text-anchor:start;fill:#ffffff;fill-opacity:0.68235294;stroke:none;font-family:Bitstream Vera Sans"
           d="m 258.1872,521.63304 c 0,0.39 0.33,0.72 0.72,0.72 0.39,0 0.72,-0.33 0.72,-0.72 l 0,-18.81 6.33,0 c 0.39,0 0.72,-0.33 0.72,-0.75 0,-0.39 -0.33,-0.72 -0.72,-0.72 l -14.1,0 c -0.39,0 -0.72,0.33 -0.72,0.72 0,0.42 0.33,0.75 0.72,0.75 l 6.33,0 0,18.81" />
        <path
           id="path3702"
           style="font-size:40px;font-style:normal;font-weight:normal;text-align:start;line-height:125%;letter-spacing:0;word-spacing:0;writing-mode:lr-tb;text-anchor:start;fill:#ffffff;fill-opacity:0.68235294;stroke:none;font-family:Bitstream Vera Sans"
           d="m 269.6397,511.70304 0,0 c 0.03,5.88 4.47001,10.65 10.14,10.65 l 0,0 c 5.60999,0 10.02,-4.77 10.05,-10.65 l 0,0 c -0.03,-5.87999 -4.44001,-10.65 -10.05,-10.65 l 0,0 c -5.66999,0 -10.11,4.77001 -10.14,10.65 m 1.47,0 0,0 c 0,-5.18999 3.9,-9.15 8.67,-9.15 l 0,0 c 4.62,0 8.52,3.96001 8.55,9.15 l 0,0 c -0.03,5.13 -3.93,9.18 -8.55,9.18 l 0,0 c -4.77,0 -8.67,-4.05 -8.67,-9.18" />
      </g>
    </g>
    <rect
       style="color:#000000;fill:#eeffaa;fill-opacity:1;fill-rule:nonzero;stroke:none;stroke-width:0.84020942;marker:none;visibility:visible;display:inline;overflow:visible;enable-background:accumulate"
       id="rect4045"
       width="733.64331"
       height="264.89514"
       x="-2.1495657"
       y="828.62659" />
    <flowRoot
       xml:space="preserve"
       id="flowRoot4702"
       style="font-size:10px;font-style:normal;font-variant:normal;font-weight:normal;font-stretch:normal;text-align:start;line-height:125%;letter-spacing:0;word-spacing:0;writing-mode:lr-tb;text-anchor:start;fill:#000000;fill-opacity:1;stroke:none;font-family:Arial;-inkscape-font-specification:Arial"
       transform="translate(40.144093,54.812127)"><flowRegion
         id="flowRegion4704"><rect
           id="rect4706"
           width="142.04832"
           height="67.936157"
           x="38.60009"
           y="1390.499"
           style="font-size:10px;font-style:normal;font-variant:normal;font-weight:normal;font-stretch:normal;font-family:Arial;-inkscape-font-specification:Arial" /></flowRegion><flowPara
         id="flowPara4708">Header shadow</flowPara></flowRoot>    <flowRoot
       xml:space="preserve"
       id="flowRoot2931"
       style="font-size:144px;font-style:normal;font-weight:normal;fill:#000000;fill-opacity:1;stroke:none;font-family:Bitstream Vera Sans"
       transform="matrix(0.39609786,0,0,0.39609786,1506.6331,1926.1208)"><flowRegion
         id="flowRegion2933"><rect
           id="rect2935"
           width="2326.6665"
           height="1880"
           x="-1620"
           y="1179.0288"
           style="font-size:144px" /></flowRegion><flowPara
         id="flowPara2937">Fonte:</flowPara><flowPara
         id="flowPara2943">neuropol</flowPara><flowPara
         id="flowPara2945" /><flowPara
         id="flowPara2947"> </flowPara><flowPara
         id="flowPara2941" /></flowRoot>    <g
       transform="matrix(0.39609786,0,0,0.39609786,698.84894,1303.8638)"
       id="g3742">
      <flowRoot
         inkscape:export-ydpi="71"
         inkscape:export-xdpi="71"
         inkscape:export-filename="/share/nodes/hacklaviva/logo/rect6201.png"
         transform="matrix(1.055612,0,0,1.1198028,-1054.7769,541.25481)"
         style="font-size:72px;font-style:normal;font-variant:normal;font-weight:normal;font-stretch:normal;text-align:start;line-height:125%;writing-mode:lr-tb;text-anchor:start;opacity:0.82959643;fill:#483e37;fill-opacity:0.83137255;fill-rule:evenodd;stroke:none;font-family:Neuropol;-inkscape-font-specification:Neuropol"
         id="flowRoot3744"
         xml:space="preserve"><flowRegion
           id="flowRegion3746"><rect
             style="fill:#483e37"
             y="1795.2194"
             x="-954.28571"
             height="620.95239"
             width="2157.1428"
             id="rect3748" /></flowRegion><flowPara
           style="font-size:219.82392883px;font-style:normal;font-variant:normal;font-weight:normal;font-stretch:normal;fill:#483e37;font-family:Neuropol;-inkscape-font-specification:Neuropol"
           id="flowPara3750">mais parlamento</flowPara></flowRoot>      <path
         id="path3752"
         d="m 21.766033,2539.0313 c -11.0831,-543.0608 -469.216303,-980.0104 -1032.801133,-980.0104 -563.5851,0 -1021.7498,436.9496 -1032.8337,980.0104 l 253.1384,0 c 11.033,-407.7359 355.8796,-735 779.6953,-735 423.81553,0 768.66223,327.2641 779.69513,735 l 253.106003,0 z m -447.323003,0 c -10.9531,-303.9256 -268.8805,-547.0652 -585.47813,-547.0652 -316.5978,0 -574.5562,243.1396 -585.5108,547.0652 l 274.2306,0 c 10.7035,-157.4314 145.9594,-281.9178 311.2802,-281.9178 165.32053,0 300.57663,124.4864 311.28003,281.9178 l 274.1981,0 z"
         style="fill:#808000;fill-opacity:1;stroke:none" />
      <path
         transform="translate(1426.6667,-720)"
         d="m -2933.3333,3275.6956 c 0,75.4789 -61.1878,136.6666 -136.6667,136.6666 -75.4789,0 -136.6667,-61.1877 -136.6667,-136.6666 0,-75.479 61.1878,-136.6667 136.6667,-136.6667 75.4789,0 136.6667,61.1877 136.6667,136.6667 z"
         sodipodi:ry="136.66667"
         sodipodi:rx="136.66667"
         sodipodi:cy="3275.6956"
         sodipodi:cx="-3070"
         id="path3754"
         style="fill:#483e37;fill-opacity:1;stroke:none"
         sodipodi:type="arc" />
      <path
         sodipodi:type="arc"
         style="opacity:0.25622774;fill:#483e37;fill-opacity:1;stroke:none"
         id="path3756"
         sodipodi:cx="-3070"
         sodipodi:cy="3275.6956"
         sodipodi:rx="136.66667"
         sodipodi:ry="136.66667"
         d="m -2933.3333,3275.6956 c 0,75.4789 -61.1878,136.6666 -136.6667,136.6666 -75.4789,0 -136.6667,-61.1877 -136.6667,-136.6666 0,-75.479 61.1878,-136.6667 136.6667,-136.6667 75.4789,0 136.6667,61.1877 136.6667,136.6667 z"
         transform="translate(1293.3333,6.6666637)" />
      <path
         sodipodi:type="arc"
         style="fill:#808000;fill-opacity:1;stroke:none"
         id="path3758"
         sodipodi:cx="-3070"
         sodipodi:cy="3275.6956"
         sodipodi:rx="136.66667"
         sodipodi:ry="136.66667"
         d="m -2933.3333,3275.6956 c 0,75.4789 -61.1878,136.6666 -136.6667,136.6666 -75.4789,0 -136.6667,-61.1877 -136.6667,-136.6666 0,-75.479 61.1878,-136.6667 136.6667,-136.6667 75.4789,0 136.6667,61.1877 136.6667,136.6667 z"
         transform="translate(1673.3333,-193.33333)" />
      <path
         transform="translate(2020,-86.666663)"
         d="m -2933.3333,3275.6956 c 0,75.4789 -61.1878,136.6666 -136.6667,136.6666 -75.4789,0 -136.6667,-61.1877 -136.6667,-136.6666 0,-75.479 61.1878,-136.6667 136.6667,-136.6667 75.4789,0 136.6667,61.1877 136.6667,136.6667 z"
         sodipodi:ry="136.66667"
         sodipodi:rx="136.66667"
         sodipodi:cy="3275.6956"
         sodipodi:cx="-3070"
         id="path3760"
         style="fill:#808000;fill-opacity:1;stroke:none"
         sodipodi:type="arc" />
      <path
         inkscape:transform-center-x="40"
         sodipodi:type="arc"
         style="fill:#808000;fill-opacity:1;stroke:none"
         id="path3762"
         sodipodi:cx="-3070"
         sodipodi:cy="3275.6956"
         sodipodi:rx="136.66667"
         sodipodi:ry="136.66667"
         d="m -2933.3333,3275.6956 c 0,75.4789 -61.1878,136.6666 -136.6667,136.6666 -75.4789,0 -136.6667,-61.1877 -136.6667,-136.6666 0,-75.479 61.1878,-136.6667 136.6667,-136.6667 75.4789,0 136.6667,61.1877 136.6667,136.6667 z"
         transform="translate(2306.6667,-233.33333)" />
      <path
         transform="translate(2326.6667,80.000004)"
         d="m -2933.3333,3275.6956 c 0,75.4789 -61.1878,136.6666 -136.6667,136.6666 -75.4789,0 -136.6667,-61.1877 -136.6667,-136.6666 0,-75.479 61.1878,-136.6667 136.6667,-136.6667 75.4789,0 136.6667,61.1877 136.6667,136.6667 z"
         sodipodi:ry="136.66667"
         sodipodi:rx="136.66667"
         sodipodi:cy="3275.6956"
         sodipodi:cx="-3070"
         id="path3764"
         style="fill:#808000;fill-opacity:1;stroke:none"
         sodipodi:type="arc"
         inkscape:transform-center-x="40" />
      <path
         inkscape:transform-center-x="40"
         sodipodi:type="arc"
         style="fill:#808000;fill-opacity:1;stroke:none"
         id="path3766"
         sodipodi:cx="-3070"
         sodipodi:cy="3275.6956"
         sodipodi:rx="136.66667"
         sodipodi:ry="136.66667"
         d="m -2933.3333,3275.6956 c 0,75.4789 -61.1878,136.6666 -136.6667,136.6666 -75.4789,0 -136.6667,-61.1877 -136.6667,-136.6666 0,-75.479 61.1878,-136.6667 136.6667,-136.6667 75.4789,0 136.6667,61.1877 136.6667,136.6667 z"
         transform="translate(2880,-240)" />
      <path
         transform="translate(2653.3333,13.33333)"
         d="m -2933.3333,3275.6956 c 0,75.4789 -61.1878,136.6666 -136.6667,136.6666 -75.4789,0 -136.6667,-61.1877 -136.6667,-136.6666 0,-75.479 61.1878,-136.6667 136.6667,-136.6667 75.4789,0 136.6667,61.1877 136.6667,136.6667 z"
         sodipodi:ry="136.66667"
         sodipodi:rx="136.66667"
         sodipodi:cy="3275.6956"
         sodipodi:cx="-3070"
         id="path3768"
         style="fill:#808000;fill-opacity:1;stroke:none"
         sodipodi:type="arc"
         inkscape:transform-center-x="40" />
    </g>
  </g>
</svg>
